<svg width="145" height="40" viewBox="0 0 145 40" fill="none" xmlns="http://www.w3.org/2000/svg">
<path d="M29.1715 4.01154C18.7939 1.50143 -0.837435 4.43863 3.65829 36.2683C16.1714 39.6401 40.186 37.707 36.1399 3" stroke="#AB7D3F" stroke-width="5"/>
<path d="M21.4163 27.6141H12.0877C10.739 20.5708 11.9978 7.67557 27.8227 12.441V23.5679" stroke="#AB7D3F" stroke-width="5"/>
<rect x="18.3358" y="18.1111" width="2.82136" height="2.82136" fill="#AB7D3F" stroke="#AB7D3F"/>
<path d="M64.2535 23.6237V13.2037H66.2535V23.6237H64.2535ZM61.3135 23.3237L56.1535 19.9237C55.1735 21.3237 53.6335 22.5637 51.4935 23.7037L50.5535 22.1037C53.8535 20.2637 55.4535 18.3837 55.4535 15.8637H51.2935V14.0837H61.5735V15.8637H57.3935C57.3935 16.7437 57.2535 17.5637 56.9735 18.3237L62.2935 21.6837L61.3135 23.3237ZM64.2535 26.6037H53.7735V24.7837H66.2535V31.9637H64.2535V26.6037ZM83.2184 31.7637V13.2037H85.2184V31.7637H83.2184ZM76.3583 16.4837V17.2637C76.3583 18.6837 76.1783 20.0237 75.8384 21.3037L81.2784 27.7237L79.8184 29.0437L75.0783 23.4037C74.1583 25.4437 72.7783 27.3437 70.9383 29.2437L69.5183 27.9037C72.6583 24.6437 74.3984 21.5437 74.3984 17.2637V16.4837H70.2583V14.6637H80.5384V16.4837H76.3583ZM102.523 31.7637V13.2037H104.463V31.7637H102.523ZM95.5432 19.6037H98.5032V13.4837H100.403V31.3837H98.5032V21.4237H95.5432V19.6037ZM93.6632 14.2837V16.7437C93.6632 18.3037 93.5232 19.7837 93.2232 21.2037L97.3632 27.9037L95.7632 29.0437L92.5232 23.7637C91.8432 25.6837 90.8632 27.5037 89.5432 29.2437L88.0232 28.0437C90.5432 24.6837 91.7632 21.1037 91.7632 16.7437V14.2837H93.6632ZM121.488 31.7637V13.2037H123.448V31.7637H121.488ZM114.968 17.6837H117.468V13.4837H119.368V31.3837H117.468V25.2637H114.328V23.5037H117.468V19.4437H114.748C114.048 23.3237 112.048 26.6637 109.068 29.5437L107.608 28.1037C111.208 24.7837 113.068 20.6237 113.068 16.7037V16.4837H108.048V14.6637H115.028V16.3037C115.028 16.7637 115.008 17.2237 114.968 17.6837ZM141.253 20.3637H143.953V22.1837H141.253V31.7637H139.253V13.2037H141.253V20.3637ZM132.653 15.3237H137.013V16.9837H126.253V15.3237H130.633V13.2237H132.653V15.3237ZM132.753 25.3837V27.5437C134.393 27.4437 136.153 27.2837 137.713 27.1037L137.933 28.8437C135.153 29.2237 131.613 29.4437 128.973 29.4437H126.033L125.933 27.6637H129.133C129.613 27.6637 130.153 27.6437 130.753 27.6237V25.4037C128.633 25.1437 127.093 23.9437 127.093 21.9237V21.6237C127.093 19.3437 129.093 18.1037 131.673 18.1037C134.193 18.1037 136.193 19.3437 136.193 21.6237V21.9237C136.193 23.8837 134.733 25.0637 132.753 25.3837ZM129.053 21.6437V21.9037C129.053 23.1437 130.173 23.8637 131.673 23.8637C133.113 23.8637 134.253 23.1437 134.253 21.9037V21.6437C134.253 20.4237 133.113 19.7037 131.673 19.7037C130.173 19.7037 129.053 20.4237 129.053 21.6437Z" fill="white"/>
</svg>
