<?xml version="1.0" encoding="UTF-8"?>
<svg id="Layer_1" data-name="Layer 1" xmlns="http://www.w3.org/2000/svg" viewBox="0 0 126.21 61.12">
  <defs>
    <style>
      .cls-1, .cls-2 {
        fill: #fff;
      }

      .cls-2, .cls-3 {
        stroke: #fff;
      }

      .cls-3 {
        fill: none;
      }
    </style>
  </defs>
  <rect class="cls-3" x=".5" y=".5" width="72.52" height="33.76"/>
  <rect class="cls-3" x="90.44" y=".5" width="35.28" height="33.76"/>
  <path class="cls-1" d="M47.66,20.36c0,1.26-.36,2.28-1.88,2.28h0c-1.52,0-1.87-1.02-1.88-2.28v-9.06h-1.68v9.06c0,2.02,1.13,3.61,3.56,3.62h0c2.42,0,3.56-1.6,3.56-3.62v-9.06h-1.68v9.06Z"/>
  <polygon class="cls-1" points="16.29 16.61 12.52 16.61 12.52 11.3 10.85 11.3 10.85 23.87 12.52 23.87 12.52 18.01 16.29 18.01 16.29 23.87 17.96 23.87 17.96 11.3 16.29 11.3 16.29 16.61"/>
  <polygon class="cls-1" points="65.1 20.27 61.75 11.3 59.26 11.3 59.26 23.87 60.9 23.87 60.9 13.25 64.94 23.87 66.73 23.87 66.73 11.3 65.1 11.3 65.1 20.27"/>
  <polygon class="cls-1" points="30.05 16.64 27.82 11.3 26.08 11.3 29.2 18.56 29.2 23.87 30.87 23.87 30.87 18.54 33.96 11.3 32.21 11.3 30.05 16.64"/>
  <rect class="cls-1" x="113.79" y="11.3" width="1.62" height="12.57"/>
  <g>
    <path class="cls-2" d="M80.55,13.19h-.21v8.78h.21c1.69-.01,2.72-.31,2.74-4.38-.01-4.08-1.05-4.39-2.74-4.4Z"/>
    <path class="cls-2" d="M72.69.5v33.76h18.07V.5h-18.07ZM84.61,22.84c-.83,1.03-2.05,1.53-3.73,1.53h-3.17v-13.57h3.18c1.67,0,2.88.5,3.72,1.53.89,1.1,1.32,2.82,1.32,5.25s-.43,4.15-1.32,5.25Z"/>
  </g>
  <path class="cls-1" d="M98.07,11.3v.05s-3,12.51-3,12.51h1.68l.79-3.53h3.3l.79,3.53h1.68l-2.98-12.56h-2.27ZM97.78,18.91l1.4-6.3,1.41,6.3h-2.81Z"/>
  <rect class="cls-1" x="13.58" y="47.1" width="9.26" height="1.45"/>
  <path class="cls-1" d="M22.33,52.25c0-1.63-1.53-2.95-4.06-2.96-2.44,0-4.06,1.32-4.06,2.96,0,1.57,1.62,2.95,4.04,2.95,2.51,0,4.07-1.38,4.08-2.95ZM15.95,52.23c0-.89.8-1.52,2.32-1.53,1.54.01,2.3.62,2.3,1.53,0,.91-.76,1.53-2.3,1.54-1.52,0-2.31-.62-2.32-1.54Z"/>
  <rect class="cls-1" x="15.76" y="44.5" width="5.03" height="1.45"/>
  <polygon class="cls-1" points="22.85 50.39 25.35 50.39 25.35 52.38 22.85 52.38 22.85 53.89 25.35 53.89 25.35 57.08 27.02 57.08 27.02 44.54 25.35 44.54 25.35 48.88 22.85 48.88 22.85 50.39"/>
  <polygon class="cls-1" points="18.25 56.14 16.52 56.14 16.52 61.12 27.47 61.12 27.47 59.6 18.25 59.6 18.25 56.14"/>
  <polygon class="cls-1" points="33.02 47.21 37.53 47.21 37.53 45.7 31.37 45.7 31.37 57.27 38.62 57.27 38.62 55.67 33.02 55.67 33.02 47.21"/>
  <polygon class="cls-1" points="42.66 50.59 40.77 50.59 40.77 44.82 39.13 44.82 39.13 60.67 40.77 60.67 40.77 52.29 42.66 52.29 42.66 61.12 44.32 61.12 44.32 44.54 42.66 44.54 42.66 50.59"/>
  <polygon class="cls-1" points="80.61 55.99 87.35 55.99 87.35 61.12 89.07 61.12 89.07 55.99 95.68 55.99 95.68 54.46 80.61 54.46 80.61 55.99"/>
  <path class="cls-1" d="M94.41,51.18h-2.16l.07-4.51h1.7v-1.52h-11.78v1.52h1.71l.07,4.51h-2.14v1.53h12.53v-1.53ZM90.6,51.18h-4.9l-.04-4.51h4.99l-.05,4.51Z"/>
  <rect class="cls-1" x="97.53" y="57.64" width="15.11" height="1.55"/>
  <polygon class="cls-1" points="110.97 52.3 101.18 52.3 101.18 46.99 110.81 46.99 110.81 45.44 99.51 45.44 99.51 53.83 110.97 53.83 110.97 52.3"/>
  <polyline class="cls-1" points="60.5 57.67 60.5 45.44 49.29 45.44 49.29 46.96 58.82 46.96 58.82 57.67"/>
  <polyline class="cls-1" points="58.82 57.67 47.63 57.67 47.63 59.19 62.25 59.19 62.25 57.67 60.5 57.67"/>
  <rect class="cls-1" x="75.73" y="44.54" width="1.67" height="12.33"/>
  <polygon class="cls-1" points="68.59 55.68 66.92 55.68 66.92 60.79 77.86 60.79 77.86 59.27 68.59 59.27 68.59 55.68"/>
  <polygon class="cls-1" points="75.25 54.48 65.23 54.48 65.23 49.01 71.07 49.01 71.07 46.67 65.23 46.67 65.23 45.15 72.74 45.15 72.74 50.55 66.9 50.55 66.9 52.95 75.25 52.95 75.25 54.48"/>
</svg>