<svg width="106" height="50" viewBox="0 0 106 50" fill="none" xmlns="http://www.w3.org/2000/svg">
<g clip-path="url(#clip0_5_31)">
<path d="M61.3273 0.408936H0.419922V28.0267H61.3273V0.408936Z" stroke="white"/>
<path d="M105.588 0.408936H75.9578V28.0267H105.588V0.408936Z" stroke="white"/>
<path d="M40.0281 16.6558C40.0281 17.6865 39.7258 18.521 38.4492 18.521C37.1726 18.521 36.8786 17.6865 36.8702 16.6558V9.24414H35.4592V16.6558C35.4592 18.3083 36.4083 19.609 38.4492 19.6172C40.4816 19.6172 41.4391 18.3083 41.4391 16.6558V9.24414H40.0281V16.6558Z" fill="white"/>
<path d="M13.6814 13.5881H10.5151V9.24414H9.11255V19.5272H10.5151V14.7333H13.6814V19.5272H15.084V9.24414H13.6814V13.5881Z" fill="white"/>
<path d="M54.6756 16.5822L51.862 9.24414H49.7708V19.5272H51.1481V10.8394L54.5412 19.5272H56.0446V9.24414H54.6756V16.5822Z" fill="white"/>
<path d="M25.2381 13.6126L23.3652 9.24414H21.9038L24.5242 15.1833V19.5272H25.9268V15.1669L28.522 9.24414H27.0522L25.2381 13.6126Z" fill="white"/>
<path d="M96.9294 9.24414H95.5688V19.5272H96.9294V9.24414Z" fill="white"/>
<path d="M67.6515 10.79H67.4751V17.9726H67.6515C69.0709 17.9644 69.9359 17.719 69.9527 14.3895C69.9443 11.0518 69.0709 10.7982 67.6515 10.79Z" fill="white" stroke="white"/>
<path d="M61.05 0.408936V28.0267H76.2265V0.408936H61.05ZM71.0613 18.6845C70.3642 19.5271 69.3396 19.9361 67.9286 19.9361H65.2662V8.83498H67.937C69.3396 8.83498 70.3558 9.24401 71.0613 10.0866C71.8088 10.9865 72.1699 12.3936 72.1699 14.3814C72.1699 16.3693 71.8088 17.7764 71.0613 18.6763V18.6845Z" fill="white" stroke="white"/>
<path d="M82.366 9.24414V9.28504L79.8464 19.519H81.2574L81.9209 16.6312H84.6925L85.356 19.519H86.767L84.2642 9.24414H82.3576H82.366ZM82.1225 15.4696L83.2983 10.3158L84.4825 15.4696H82.1225Z" fill="white"/>
<path d="M19.1827 38.5308H11.4055V39.717H19.1827V38.5308Z" fill="white"/>
<path d="M18.7543 42.7437C18.7543 41.4103 17.4693 40.3304 15.3444 40.3223C13.2952 40.3223 11.9346 41.4021 11.9346 42.7437C11.9346 44.0281 13.2952 45.157 15.3276 45.157C17.4357 45.157 18.7459 44.0281 18.7543 42.7437ZM13.3959 42.7274C13.3959 41.9993 14.0678 41.4839 15.3444 41.4757C16.6378 41.4839 17.2761 41.9829 17.2761 42.7274C17.2761 43.4718 16.6378 43.979 15.3444 43.9872C14.0678 43.9872 13.4043 43.48 13.3959 42.7274Z" fill="white"/>
<path d="M17.4609 36.4038H13.2363V37.59H17.4609V36.4038Z" fill="white"/>
<path d="M19.1909 41.2222H21.2906V42.8501H19.1909V44.0854H21.2906V46.695H22.6932V36.4365H21.2906V39.9869H19.1909V41.2222Z" fill="white"/>
<path d="M15.3277 45.926H13.8748V50H23.0713V48.7565H15.3277V45.926Z" fill="white"/>
<path d="M27.7325 38.6208H31.5203V37.3855H26.3467V46.8505H32.4357V45.5416H27.7325V38.6208Z" fill="white"/>
<path d="M35.8288 41.3858H34.2414V36.6656H32.864V49.6319H34.2414V42.7765H35.8288V50H37.2229V36.4365H35.8288V41.3858Z" fill="white"/>
<path d="M67.7019 45.8034H73.3626V50.0001H74.8072V45.8034H80.3587V44.5518H67.7019V45.8034Z" fill="white"/>
<path d="M79.2921 41.8685H77.478L77.5368 38.179H78.9646V36.9355H69.0709V38.179H70.5071L70.5659 41.8685H68.7686V43.1201H79.2921V41.8685ZM76.0922 41.8685H71.9769L71.9433 38.179H76.1342L76.0922 41.8685Z" fill="white"/>
<path d="M94.603 47.1531H81.9126V48.4211H94.603V47.1531Z" fill="white"/>
<path d="M93.2003 42.7848H84.978V38.4409H93.066V37.1729H83.5754V44.0364H93.2003V42.7848Z" fill="white"/>
<path d="M50.8122 47.1778V37.1729H41.3972V38.4163H49.4012V47.1778" fill="white"/>
<path d="M49.4011 47.1777H40.0029V48.4212H52.2818V47.1777H50.8121" fill="white"/>
<path d="M65.0059 36.4365H63.6033V46.5232H65.0059V36.4365Z" fill="white"/>
<path d="M57.6067 45.5498H56.2041V49.7301H65.3923V48.4867H57.6067V45.5498Z" fill="white"/>
<path d="M63.2002 44.5681H54.7847V40.0933H59.6895V38.179H54.7847V36.9355H61.0921V41.3531H56.1872V43.3164H63.2002V44.5681Z" fill="white"/>
</g>
<defs>
<clipPath id="clip0_5_31">
<rect width="106" height="50" fill="white"/>
</clipPath>
</defs>
</svg>
