<svg width="100" height="34" viewBox="0 0 100 34" fill="none" xmlns="http://www.w3.org/2000/svg">
<path d="M79.6133 8.31583C79.6133 8.60512 79.6543 8.90494 79.767 9.18897C80.2641 10.4513 81.53 11.2298 83.1392 10.5723C83.5235 10.4145 94.1678 6.01202 94.1678 6.01202C94.1678 6.01202 89.9757 16.921 89.8168 17.326C89.2069 18.8881 89.9398 20.303 91.1851 20.7764C91.4619 20.8816 91.7489 20.9342 92.0307 20.929C93.0506 20.9237 93.9474 20.3083 94.3881 19.0775C94.4548 18.8934 99.6975 4.11847 99.8102 3.76606C99.8768 3.55566 99.9998 3.06124 99.9998 2.71935C99.9998 1.98823 99.7385 1.29918 99.2311 0.778459C98.734 0.262993 98.0678 0 97.3657 0C97.0223 0 96.7456 0.0631183 96.3253 0.199875C96.0742 0.284032 82.5601 5.44395 81.407 5.88578C80.2539 6.32761 79.6133 7.27438 79.6184 8.31583" fill="#ED1C24"/>
<path d="M54.2924 16.6476V16.332H46.0978V18.4833H50.8587C49.6185 22.5124 45.1855 24.8793 45.1855 24.8793L46.3694 26.5782C46.3694 26.5782 54.2924 23.2224 54.2924 16.6424V16.6476Z" fill="white"/>
<path d="M51.7046 30.9326V26.751H48.7988V31.4638C48.7988 32.9366 49.9417 33.9991 51.5099 33.9991H60.5142V31.853H52.7193C52.0121 31.853 51.7148 31.5637 51.6995 30.9326H51.7046Z" fill="white"/>
<path d="M53.9639 20.2976V22.4489H57.4231V27.6351H60.3289V16.1055H57.4231V20.2976H53.9639Z" fill="white"/>
<path d="M79.0044 24.747H81.9101V16.0156H79.0044V18.735H75.9756V20.86H79.0044V24.747Z" fill="white"/>
<path d="M13.826 26.5889H2.7666V31.4648C2.7666 32.9375 3.90944 34 5.47763 34H14.4717V27.2516C14.4717 26.8834 14.1796 26.5889 13.826 26.5889ZM11.5659 31.854H6.68709C5.97986 31.854 5.6775 31.57 5.66725 30.9335V28.7454H11.5659V31.854Z" fill="white"/>
<path d="M14.6672 16.3636V16.2637H2.60853V18.415H11.6282C11.6282 18.557 11.6282 18.7358 11.6282 18.9094C11.6282 20.9081 11.5308 22.2231 11.4796 22.7596H0V24.9109H17.6858V22.7596H14.0676C14.2419 22.0863 14.6724 20.0034 14.6724 16.3636H14.6672Z" fill="white"/>
<path d="M32.7269 27.6721C35.1407 27.1303 36.9242 25.2736 36.9242 23.0749C36.9242 21.8915 36.4065 20.8079 35.5558 19.9716H38.641V17.8203H32.7269V15.79H29.8263V17.8203H23.9122V19.9716H26.9974C26.1467 20.8079 25.629 21.8862 25.629 23.0749C25.629 25.2788 27.4125 27.1303 29.8314 27.6721V29.8496H22.4414V32.0009H40.122V29.8496H32.732V27.6721H32.7269ZM28.6117 23.0066C28.6117 21.5391 29.8058 20.3398 31.2715 20.3398C32.7372 20.3398 33.9313 21.5338 33.9313 23.0066C33.9313 24.4793 32.7372 25.6733 31.2715 25.6733C29.8058 25.6733 28.6117 24.4793 28.6117 23.0066Z" fill="white"/>
<path d="M73.4489 24.5631H76.2624C76.1445 23.8636 75.1144 18.2145 72.4341 16.2578H69.1901L66.6943 24.6315H69.6104L71.2708 18.6037C72.6699 20.2869 73.3515 24.0108 73.4437 24.5631H73.4489Z" fill="white"/>
<path d="M74.0275 31.9278C73.2895 31.9278 73.1563 31.7332 73.1563 31.0915V30.8232H81.9146V26.2998C81.9146 25.9105 81.6379 25.6055 81.2433 25.6055H70.3018V27.6779H79.1318V28.7877H70.3786V31.4649C70.3786 33.0166 71.4651 34.0002 73.0897 34.0002H82.1042V31.9278H74.0275Z" fill="white"/>
</svg>
