<svg width="41" height="41" viewBox="0 0 41 41" fill="none" xmlns="http://www.w3.org/2000/svg">
<path d="M37.8562 12.599L21.2583 1.14764C20.973 0.953649 20.5964 0.947943 20.3111 1.14764L3.37087 12.5419C3.13694 12.696 3 12.9585 3 13.2437V38.1549C3 38.6227 3.37658 38.9993 3.84444 38.9993H6.15526C6.42342 38.9993 6.68018 38.8681 6.83994 38.6512C6.94835 38.4972 7.00541 38.3146 6.9997 38.132C7.04535 37.9323 7.43904 36.5915 10.7198 31.9014C11.2961 31.0741 11.7925 30.3837 12.2147 29.7846C14.6453 26.3612 14.8793 26.0017 15.6324 22.8921C16.2943 23.1831 16.8706 23.3314 17.3727 23.3314C17.6465 23.3314 17.8976 23.2858 18.1258 23.2059C18.5252 23.0576 18.7934 22.8008 18.9417 22.5555C19.3583 22.0762 19.7976 20.878 19.2784 17.9167C18.8676 15.5488 19.2613 14.9155 19.3925 14.7729C19.4553 14.7044 19.5865 14.5675 19.6435 14.3392C19.7577 13.8885 19.4781 13.432 19.0273 13.3179C18.685 13.2323 18.3369 13.3693 18.1429 13.6431C17.658 14.1681 17.0988 15.2236 17.618 18.2077C18.0345 20.6041 17.7036 21.363 17.6465 21.4714C17.6009 21.5227 17.561 21.5741 17.5267 21.6311C17.4069 21.6654 16.8706 21.7281 15.4955 20.9407L12.3288 18.9266C12.1748 18.7669 11.7297 18.1963 12.2946 17.3404C13.5613 15.4233 16.5339 12.1939 19.1243 11.6804C22.3423 11.0413 24.4477 10.8017 27.1237 13.8086C27.2778 13.9798 27.4946 14.0825 27.7228 14.0882L31.3402 14.208C31.5799 14.7158 31.8709 15.914 30.5928 17.6942C29.7712 18.0651 27.021 19.4858 24.773 22.6467C24.5048 23.029 24.5904 23.554 24.9727 23.8221C25.355 24.0903 25.8799 24.0047 26.148 23.6224C28.4589 20.3702 31.4144 19.172 31.4372 19.1606C31.5799 19.1035 31.7111 19.0065 31.8024 18.8867C34.5583 15.2521 32.5156 12.9128 32.43 12.8101C32.276 12.6389 32.0592 12.5419 31.8309 12.5305L28.1279 12.4107C24.7787 8.83323 21.7318 9.43803 18.7877 10.02C14.594 10.853 10.9195 16.3476 10.8796 16.4047C9.73273 18.1392 10.6114 19.657 11.2333 20.2161C11.2676 20.2446 11.3018 20.2732 11.3417 20.296L14.0862 22.0419C13.3102 25.3056 13.2075 25.454 10.8282 28.8032C10.406 29.4023 9.90961 30.0984 9.32763 30.9257C6.81712 34.5146 5.83574 36.3404 5.48198 37.3047H4.67748V13.6888L20.7733 2.85935L36.5324 13.7344V37.3104H20.0658C19.9574 36.7798 19.9688 35.7527 20.1057 34.817C20.1628 34.4119 19.9288 34.0239 19.5408 33.8984C17.0303 33.0482 16.7393 31.7302 16.745 31.1311L17.8691 30.4807C18.1315 30.3266 18.2913 30.0413 18.2856 29.7389C18.2456 27.5023 20.9616 27.0002 21.0757 26.9831C21.4808 26.9146 21.7775 26.5609 21.7775 26.15V25.2428C26.2679 26.5552 27.9453 32.9341 27.9682 33.0254C28.0823 33.4762 28.5387 33.75 28.9895 33.6359C29.4402 33.5218 29.7141 33.0654 29.6 32.6146C29.5144 32.2666 27.3976 24.1416 21.03 23.3828C20.7904 23.3542 20.5508 23.4284 20.3682 23.5882C20.1856 23.7479 20.0829 23.9762 20.0829 24.2215V25.4939C18.6793 25.9332 16.8249 27.0687 16.6081 29.2597L15.5297 29.8873C15.3414 29.9957 15.1988 30.1783 15.1417 30.3894C14.8279 31.5248 15.1417 33.9041 18.3483 35.2564C18.2513 36.2777 18.2228 37.9152 18.8619 38.6969C19.0216 38.8909 19.2613 39.005 19.5123 39.005H37.3655C37.8333 39.005 38.2099 38.6284 38.2099 38.1606V13.2951C38.2099 13.0155 38.073 12.7588 37.8447 12.599H37.8562Z" fill="#24B1A3"/>
<path d="M24.8586 15.208C24.8586 14.7059 24.4535 14.3008 23.9514 14.3008C23.4493 14.3008 23.0442 14.7059 23.0442 15.208C23.0442 15.7101 23.4493 16.1152 23.9514 16.1152C24.4535 16.1152 24.8586 15.7101 24.8586 15.208Z" fill="#24B1A3"/>
<path d="M20.5509 29.5449C20.18 29.5449 19.8833 29.8473 19.8833 30.2125C19.8833 30.5777 20.1857 30.8801 20.5509 30.8801C20.916 30.8801 21.2184 30.5777 21.2184 30.2125C21.2184 29.8473 20.916 29.5449 20.5509 29.5449Z" fill="#24B1A3"/>
</svg>
