<svg width="126" height="125" viewBox="0 0 126 125" fill="none" xmlns="http://www.w3.org/2000/svg">
<g clip-path="url(#clip0_126_267)">
<path d="M29.4709 10.495C29.7251 10.8265 29.6767 11.14 29.3256 11.4052L23.6784 15.6971C23.7026 16.0406 23.8539 16.33 23.981 16.541C24.1868 16.8785 24.441 16.9931 24.9071 16.77C25.3066 16.5771 26.2084 15.9442 27.0679 15.2932C28.4782 14.2202 29.8038 13.1412 30.4211 12.5385C30.754 12.2129 31.0567 12.1105 31.3533 12.3938C31.6862 12.7072 31.7588 13.0147 31.432 13.3341C30.8206 13.961 29.6222 14.9315 28.4177 15.8658L28.4722 15.9321L29.1803 16.8544L32.9815 13.9671C33.3507 13.6838 33.6533 13.6777 33.9257 14.0334C34.1981 14.389 34.1073 14.6783 33.7381 14.9556L24.9616 21.6285C24.5924 21.9058 24.3018 21.9118 24.0294 21.5562C23.7571 21.2005 23.8358 20.9232 24.205 20.6399L28.0243 17.7345L27.3161 16.8122L27.2556 16.7339C26.2205 17.4813 25.1432 18.1745 24.6226 18.3734C23.9387 18.6206 23.4847 18.6567 23.0368 18.066C22.7705 17.7224 22.601 17.0714 22.6373 16.4927L22.5223 16.5832C22.1773 16.8484 21.8565 16.8122 21.6023 16.4807C21.3481 16.1492 21.3965 15.8357 21.7476 15.5705L28.563 10.3865C28.908 10.1213 29.2288 10.1574 29.483 10.489L29.4709 10.495ZM27.3706 24.0879C26.4203 22.8461 27.2798 21.1523 29.9793 19.0968C32.6728 17.0533 34.5249 16.6796 35.4752 17.9213C36.4436 19.1872 35.5962 20.869 32.9088 22.9185C30.2093 24.974 28.339 25.3537 27.3706 24.0879ZM34.307 18.8316C33.8652 18.2529 32.6607 18.6628 30.754 20.1095C28.8353 21.5682 28.115 22.6291 28.5569 23.2018C28.9988 23.7744 30.2032 23.3525 32.122 21.8937C34.0286 20.447 34.7489 19.4042 34.307 18.8316Z" fill="white"/>
<path d="M35.7899 10.4589L34.3856 7.16764C34.2585 6.87227 34.428 6.63116 34.8638 6.44429C35.3178 6.2514 35.6083 6.29962 35.7293 6.58293C37.1517 5.72697 38.7739 4.91321 40.2568 4.28631C42.5811 3.30377 43.5495 3.49063 43.949 4.43701C44.1124 4.82279 44.0942 5.33516 43.9974 5.79931L44.0761 5.76314C44.3969 5.59436 44.6814 5.69684 44.8508 6.09467C45.0264 6.5106 44.9174 6.77582 44.5724 6.95063C43.0895 7.73426 39.4639 9.22314 37.176 10.0369C37.1941 10.266 37.0186 10.4468 36.6433 10.6096C36.2136 10.7904 35.9049 10.7361 35.7899 10.4528V10.4589ZM46.5819 7.77645C46.7514 8.17429 46.594 8.43349 46.1643 8.61433L41.7639 10.4769L42.1634 11.4113L44.7419 10.3202C45.6256 9.94649 46.2793 10.2177 46.5214 10.7904C46.6606 11.1219 46.7393 11.5198 46.7211 11.8513C46.9935 11.7488 47.1932 11.8091 47.3385 12.1527C47.4898 12.5144 47.3809 12.7314 47.1146 12.8459L39.815 15.9382C39.8452 16.3059 39.9421 16.6073 40.1357 16.6856C40.3234 16.764 40.5534 16.7459 41.5218 16.3843C43.604 15.6127 45.3653 14.817 47.4172 13.7742C47.8046 13.5753 48.1193 13.6838 48.2767 14.0515C48.4159 14.383 48.307 14.606 47.8591 14.8411C45.5953 16.0045 43.3921 16.9509 41.0558 17.7707C39.7121 18.2469 39.016 18.1323 38.6952 17.3849C38.5862 17.1317 38.5136 16.8484 38.5015 16.4928C38.217 16.5952 37.9628 16.4867 37.8357 16.1914C37.6904 15.8478 37.8357 15.6067 38.1202 15.4861L45.4319 12.3878C45.4016 11.9899 45.2927 11.6946 45.1716 11.6042C45.0264 11.4896 44.8811 11.5077 44.2758 11.7609L37.9507 14.4433C37.5391 14.6181 37.2486 14.5337 37.0912 14.166C36.946 13.8224 37.067 13.5632 37.4968 13.3824L40.8137 11.9779L40.4142 11.0436L35.9896 12.9182C35.5599 13.0991 35.2814 13.0328 35.112 12.6289C34.9425 12.2311 35.0878 11.9779 35.5175 11.797L45.6801 7.49314C46.1098 7.31231 46.4003 7.37861 46.5759 7.77645H46.5819ZM42.8534 6.36593C42.8716 5.99823 42.805 5.63053 42.7142 5.41955C42.5084 4.93732 41.9455 4.91321 40.62 5.4738C39.2036 6.07659 37.6178 6.87227 36.1954 7.68001L36.7341 8.94586C38.5257 8.26471 41.08 7.18572 42.8474 6.37196L42.8534 6.36593Z" fill="white"/>
<path d="M49.8686 8.36134L48.9546 2.42991C48.9002 2.07427 49.1423 1.82712 49.6023 1.76082C50.0744 1.68848 50.3528 1.85124 50.4073 2.20688L50.6373 3.69577L57.4406 2.65897C57.3559 2.20085 57.2711 1.74876 57.1561 1.28462C57.0714 0.947055 57.2953 0.675801 57.6948 0.603466C58.2093 0.494964 58.4938 0.657717 58.5967 1.01939C59.0869 2.78556 59.2806 4.69036 58.8933 6.09486L59.0204 6.05869C59.3896 5.9743 59.6377 6.16719 59.7043 6.59517C59.7709 7.02315 59.5954 7.2281 59.1959 7.31852C58.3425 7.52346 56.9443 7.76458 55.4916 7.96953L55.8548 10.3445C57.5617 10.0672 59.2322 9.74172 60.5578 9.40416C60.9815 9.29566 61.2599 9.45841 61.3325 9.95873C61.4051 10.4289 61.1812 10.5977 60.703 10.7303C57.6767 11.4838 52.9676 12.2071 49.8505 12.388C49.3541 12.406 49.106 12.3096 49.0333 11.8394C48.9547 11.3391 49.1544 11.104 49.5902 11.0799C50.9763 11.0015 52.6771 10.8147 54.4203 10.5615L54.0511 8.15639C53.016 8.30106 52.0294 8.40956 51.2789 8.46381C51.2063 8.65068 51.0005 8.77123 50.6857 8.81946C50.2439 8.88576 49.9231 8.71698 49.8626 8.36134H49.8686ZM57.6282 6.342C57.7251 5.62468 57.713 4.78078 57.6101 3.85852L50.8189 4.89531L51.1821 7.25221C52.8768 7.08343 55.6671 6.69765 57.6222 6.342H57.6282Z" fill="white"/>
<path d="M73.3653 6.75779C73.2382 8.05378 71.9429 8.93385 69.1224 8.80727L68.9347 10.7362C70.6416 10.8688 72.3303 10.9592 73.6559 10.9592C74.0796 10.9592 74.4125 11.122 74.364 11.6404C74.3217 12.0985 73.9524 12.1527 73.4803 12.1527C70.4903 12.1527 65.6541 11.6946 62.7367 11.122C62.2767 11.0376 61.9256 10.911 61.968 10.4529C62.0164 9.93448 62.3796 9.83803 62.7912 9.92242C64.0925 10.1756 65.7631 10.4107 67.47 10.6036L67.6576 8.67465C64.8491 8.25873 63.7475 7.16769 63.8746 5.85361C64.0138 4.44309 65.5149 3.53891 68.856 3.85838C72.1971 4.17786 73.4985 5.34727 73.3653 6.76382V6.75779ZM74.4185 2.8457C74.3761 3.29176 74.1098 3.44246 73.7103 3.40026L64.1046 2.478C63.6991 2.44183 63.4691 2.24291 63.5115 1.79685C63.5538 1.35079 63.8201 1.20009 64.2196 1.24229L68.3294 1.6341L68.4384 0.482774C68.4687 0.18138 68.7229 -0.0416509 69.2131 0.00657207C69.7216 0.0547951 69.9153 0.320021 69.885 0.621415L69.776 1.77274L73.8253 2.15852C74.2309 2.19469 74.4609 2.39361 74.4185 2.83967V2.8457ZM65.3394 5.98622C65.2728 6.66134 66.1444 7.31235 68.505 7.54141C70.8655 7.77047 71.84 7.29427 71.9066 6.61915C71.9732 5.94403 71.1016 5.29302 68.741 5.06396C66.3865 4.8349 65.406 5.3111 65.3394 5.98622Z" fill="white"/>
<path d="M76.7186 7.42087C79.1457 6.33586 80.0234 5.19056 80.9555 3.11094C81.1189 2.73721 81.5002 2.70708 81.8815 2.89997C82.2084 3.06272 82.3537 3.29781 82.1842 3.73181C81.8997 4.47927 81.5608 5.16645 81.0886 5.82951C81.7544 6.94467 82.3294 8.25272 82.5776 9.23526C82.6805 9.66927 82.4384 10.049 82.0147 10.1093C81.6273 10.1575 81.355 10.0129 81.1855 9.45829C80.9615 8.79523 80.6286 7.92119 80.1202 6.92659C79.3999 7.58965 78.486 8.17436 77.2633 8.68673C76.9365 8.81934 76.5067 8.68673 76.3312 8.22861C76.2162 7.90913 76.3312 7.58362 76.7186 7.41484V7.42087ZM78.4012 10.4529C78.8673 10.6217 79.0549 10.905 78.9218 11.2847C78.7765 11.6946 78.5162 12.418 78.6554 12.8339C78.946 13.6597 79.9568 14.1118 81.5123 14.6242C83.1889 15.1607 84.914 15.5043 85.7916 15.5223C86.2335 15.5404 86.4816 15.7514 86.4393 16.2155C86.4029 16.6978 86.2335 16.8786 85.725 16.8665C84.7263 16.8485 82.8076 16.4868 81.1794 15.9503C79.9507 15.5404 78.6796 14.9678 78.032 14.4855C77.1665 13.8406 76.9244 12.9364 77.1301 11.9779C77.2149 11.5319 77.3541 11.1039 77.4933 10.7543C77.6446 10.4228 77.9291 10.2781 78.4073 10.4529H78.4012ZM83.5097 12.43C83.0558 12.2673 82.9589 11.99 83.0981 11.6042L84.5024 7.71021L83.1345 7.22195C82.8076 7.10139 82.6866 6.83014 82.8379 6.42627C82.9892 6.02241 83.2495 5.88376 83.5763 5.99829L84.9442 6.48655L85.6282 4.5938C85.7674 4.21404 86.0156 4.06937 86.4695 4.23213C86.8932 4.38282 87.0385 4.66613 86.9053 5.03383L84.3753 12.0623C84.2361 12.4421 83.9697 12.5928 83.5158 12.43H83.5097ZM89.1267 5.02781C89.5806 5.19056 89.6956 5.46181 89.5564 5.84157L86.8932 13.2378C86.754 13.6175 86.4877 13.7682 86.0337 13.6055C85.61 13.4548 85.4829 13.1654 85.6222 12.7797L88.2854 5.38345C88.4185 5.01575 88.6848 4.86505 89.1267 5.02178V5.02781Z" fill="white"/>
<path d="M92.486 8.53646C92.6918 8.23507 93.0065 8.10246 93.2728 8.28329L98.5266 11.8277C98.8535 12.0447 98.8474 12.3943 98.6416 12.6897C98.4358 12.985 98.1211 13.1237 97.7942 12.9067L94.2231 10.4955C93.3636 11.0682 92.5768 11.7614 91.9231 12.4546L95.9905 15.1973C96.2084 15.3419 96.4263 15.6132 96.1418 16.0351C95.8634 16.445 95.5245 16.3546 95.3066 16.2039L91.1362 13.3889C90.7428 13.8892 90.4402 14.3895 90.2767 14.8055C89.9196 15.7157 90.1315 16.3305 90.8941 17.0177C91.4873 17.5602 92.6191 18.1991 94.0597 18.6271C94.4955 18.7597 94.6105 19.0009 94.4894 19.3866C94.3684 19.7724 94.0476 19.9834 93.63 19.8568C92.1531 19.4228 90.8154 18.7115 89.6473 17.6446C88.467 16.5716 88.2672 15.4203 88.8604 14.1303C89.5867 12.5751 91.3602 10.7849 93.1881 9.80232L92.5405 9.36228C92.2741 9.18145 92.2802 8.83786 92.486 8.53646ZM94.7134 22.8587L98.0121 18.0063L96.7108 17.1322C96.4566 16.9634 96.2266 16.6801 96.5111 16.2642C96.7955 15.8422 97.1406 15.9568 97.3948 16.1256L98.6961 16.9996L101.311 13.1538C101.505 12.8645 101.825 12.6776 102.285 12.9911C102.751 13.3045 102.709 13.6782 102.515 13.9676L95.9179 23.6664C95.7121 23.9678 95.3853 24.1426 94.9131 23.8292C94.4652 23.5278 94.5197 23.142 94.7134 22.8587Z" fill="white"/>
<path d="M114.778 52.0217C116.34 51.859 117.339 53.4744 117.69 56.844C118.041 60.1955 117.393 61.9677 115.831 62.1305C114.24 62.2932 113.241 60.6958 112.89 57.3443C112.539 53.9747 113.186 52.1905 114.772 52.0277L114.778 52.0217ZM115.668 60.6597C116.388 60.5873 116.673 59.3456 116.425 56.9706C116.176 54.5836 115.644 53.4142 114.923 53.4865C114.203 53.5588 113.937 54.8126 114.185 57.1997C114.433 59.5746 114.948 60.726 115.668 60.6536V60.6597ZM125.334 60.8947C124.917 60.9369 124.674 60.732 124.626 60.298L123.894 53.2574C123.585 53.1007 123.258 53.0766 123.01 53.0706C122.617 53.0706 122.38 53.2213 122.332 53.7397C122.29 54.1797 122.362 55.2768 122.471 56.3437C122.653 58.0978 122.889 59.7916 123.077 60.6295C123.185 61.0816 123.113 61.3951 122.713 61.4975C122.272 61.6181 121.969 61.5156 121.866 61.0756C121.648 60.2256 121.442 58.7066 121.273 57.1936L121.188 57.2057L120.032 57.3262L120.528 62.0641C120.577 62.5223 120.431 62.7875 119.984 62.8357C119.536 62.8839 119.336 62.6549 119.288 62.1968L118.144 51.2562C118.095 50.7981 118.246 50.5449 118.694 50.5027C119.142 50.4545 119.342 50.6715 119.39 51.1296L119.887 55.8916L121.043 55.771L121.146 55.759C121.043 54.4871 121.013 53.2152 121.115 52.6667C121.261 51.9554 121.466 51.5515 122.205 51.4792C122.641 51.437 123.288 51.6299 123.76 51.9554L123.748 51.8107C123.706 51.3767 123.894 51.1236 124.317 51.0814C124.735 51.0392 124.977 51.2441 125.019 51.6781L125.903 60.1714C125.946 60.6054 125.758 60.8586 125.334 60.9008V60.8947Z" fill="white"/>
<path d="M118.755 76.8436C118.325 76.7833 118.186 76.5121 118.253 76.0539L118.943 71.3462L117.938 71.2015L117.532 73.9623C117.393 74.9086 116.818 75.3185 116.201 75.2281C115.844 75.1739 115.468 75.0352 115.184 74.8484C115.129 75.1317 114.978 75.2703 114.603 75.2161C114.215 75.1618 114.082 74.9508 114.125 74.6615L115.269 66.8433C114.942 66.6806 114.627 66.6022 114.463 66.7288C114.3 66.8554 114.197 67.0543 114.003 68.067C113.586 70.2431 113.35 72.1539 113.174 74.4385C113.138 74.8725 112.89 75.0834 112.484 75.0232C112.127 74.9689 111.994 74.764 112.024 74.2516C112.206 71.7199 112.533 69.357 113.047 66.9458C113.338 65.5534 113.798 65.0229 114.603 65.1375C114.875 65.1797 115.16 65.264 115.468 65.4389C115.529 65.1375 115.753 64.9807 116.074 65.029C116.449 65.0832 116.57 65.3364 116.527 65.6378L115.384 73.468C115.741 73.6488 116.049 73.7091 116.195 73.6609C116.364 73.6006 116.431 73.462 116.521 72.817L117.514 66.0477C117.581 65.6016 117.799 65.4027 118.204 65.463C118.579 65.5172 118.731 65.7583 118.664 66.2164L118.144 69.7669L119.148 69.9115L119.844 65.1736C119.911 64.7155 120.117 64.5106 120.547 64.5708C120.976 64.6311 121.115 64.8903 121.049 65.3484L119.457 76.2287C119.39 76.6869 119.185 76.9039 118.749 76.8436H118.755ZM122.06 66.2707L125.613 66.7891C125.927 66.8373 126.054 67.1025 125.982 67.5727C125.909 68.061 125.716 68.278 125.413 68.2358C125.407 69.8874 125.262 71.6958 125.026 73.2811C124.662 75.7706 123.997 76.494 122.98 76.3433C122.562 76.283 122.132 75.9997 121.787 75.6742L121.775 75.7586C121.751 76.1202 121.521 76.3071 121.085 76.2408C120.637 76.1745 120.468 75.9454 120.498 75.5536C120.595 73.8839 121.206 70.0261 121.697 67.6571C121.491 67.5546 121.424 67.3075 121.485 66.9097C121.551 66.4515 121.763 66.2164 122.066 66.2647L122.06 66.2707ZM121.902 74.4023C122.211 74.6072 122.556 74.7459 122.786 74.776C123.307 74.8484 123.621 74.3842 123.827 72.9677C124.051 71.4486 124.19 69.6885 124.239 68.0549L122.871 67.856C122.526 69.7367 122.12 72.4674 121.902 74.3963V74.4023Z" fill="white"/>
<path d="M116.546 79.3462L122.114 81.6488C122.447 81.7874 122.532 82.119 122.356 82.547C122.175 82.987 121.89 83.1377 121.557 82.999L120.159 82.4204L117.52 88.7557C117.956 88.9184 118.392 89.0812 118.852 89.2258C119.185 89.3343 119.3 89.6598 119.154 90.0396C118.979 90.5339 118.694 90.6966 118.325 90.5942C116.552 90.0938 114.821 89.268 113.81 88.2131L113.774 88.3397C113.659 88.6954 113.356 88.8099 112.956 88.6411C112.557 88.4724 112.472 88.2192 112.599 87.8334C112.866 87.0016 113.386 85.6814 113.961 84.3372L111.734 83.415C111.086 85.0124 110.499 86.6037 110.099 87.9118C109.972 88.3277 109.688 88.4784 109.222 88.2855C108.78 88.1047 108.756 87.8274 108.889 87.3512C109.809 84.3794 111.637 79.9972 113.102 77.2484C113.344 76.8144 113.556 76.6517 113.997 76.8325C114.47 77.0254 114.566 77.3148 114.361 77.7005C113.713 78.9182 112.987 80.4673 112.297 82.0828L114.554 83.0111C114.966 82.0527 115.39 81.1605 115.729 80.4914C115.607 80.3347 115.607 80.0996 115.729 79.8043C115.904 79.3883 116.213 79.2075 116.552 79.3462H116.546ZM114.258 87.0015C114.827 87.4536 115.559 87.8816 116.4 88.2795L119.033 81.9562L116.818 81.04C116.086 82.5711 114.966 85.145 114.258 87.0015Z" fill="white"/>
<path d="M105.717 100.165C104.67 99.3815 104.591 97.8263 106.171 95.4935L104.616 94.3302C103.611 95.7105 102.655 97.097 101.971 98.2302C101.753 98.5919 101.438 98.7908 101.02 98.4773C100.651 98.2 100.796 97.8565 101.039 97.4647C102.594 94.9209 105.505 91.051 107.515 88.8689C107.83 88.5253 108.114 88.2902 108.489 88.5675C108.907 88.881 108.804 89.2366 108.514 89.544C107.618 90.5205 106.547 91.8165 105.493 93.1668L107.049 94.3302C108.865 92.1601 110.378 91.7924 111.437 92.5821C112.575 93.432 112.569 95.1801 110.553 97.8565C108.538 100.527 106.855 101.027 105.717 100.177V100.165ZM110.553 93.7455C110.009 93.3356 108.998 93.7394 107.575 95.6261C106.153 97.5129 106.05 98.5919 106.595 99.0018C107.14 99.4117 108.15 99.0018 109.573 97.1211C110.995 95.2343 111.098 94.1554 110.553 93.7455ZM108.52 103.095C108.157 102.823 108.169 102.522 108.411 102.203L114.197 94.517C114.439 94.1915 114.73 94.1011 115.087 94.3724C115.45 94.6436 115.438 94.945 115.196 95.2645L112.72 98.5497L113.652 99.2429C113.895 99.4237 113.955 99.7552 113.658 100.153C113.356 100.557 113.023 100.581 112.781 100.4L111.849 99.707L109.409 102.95C109.167 103.276 108.877 103.366 108.52 103.101V103.095Z" fill="white"/>
<path d="M99.9127 102.523C99.5313 102.831 99.1863 102.849 98.9321 102.529C98.6597 102.192 98.1755 101.595 97.7397 101.498C96.8802 101.318 95.9663 101.938 94.7194 102.999C93.3878 104.145 92.1954 105.441 91.7233 106.17C91.4751 106.532 91.1665 106.634 90.7912 106.357C90.3978 106.08 90.3312 105.832 90.6035 105.41C91.1362 104.573 92.4496 103.126 93.757 102.023C94.7436 101.191 95.8997 100.407 96.6502 100.106C97.655 99.7081 98.5568 99.9673 99.2711 100.642C99.61 100.944 99.9066 101.287 100.131 101.589C100.336 101.89 100.312 102.204 99.9187 102.523H99.9127ZM98.9927 114.464C98.6174 114.766 98.3269 114.724 98.0666 114.41L93.1094 108.298C92.8552 107.984 92.8673 107.677 93.2365 107.376C93.5875 107.092 93.9023 107.14 94.1565 107.454L99.1137 113.566C99.3619 113.868 99.3498 114.175 98.9866 114.47L98.9927 114.464ZM95.5607 105.838C95.936 105.537 96.2265 105.603 96.4808 105.917L99.0895 109.136L100.221 108.225C100.494 108.008 100.79 108.051 101.063 108.388C101.335 108.726 101.317 109.021 101.045 109.238L99.9127 110.148L101.184 111.716C101.438 112.029 101.432 112.318 101.057 112.62C100.706 112.903 100.391 112.879 100.143 112.578L95.4336 106.773C95.1794 106.459 95.1915 106.152 95.5607 105.851V105.838ZM103.393 102.662C103.06 105.29 103.587 106.634 104.888 108.509C105.124 108.84 104.949 109.184 104.585 109.401C104.277 109.594 103.998 109.594 103.714 109.226C103.224 108.599 102.806 107.948 102.485 107.201C101.184 107.189 99.7614 106.996 98.7869 106.694C98.3571 106.556 98.1634 106.158 98.3268 105.76C98.4903 105.404 98.7505 105.248 99.3195 105.392C100.003 105.549 100.93 105.718 102.043 105.802C101.843 104.844 101.825 103.765 102.019 102.457C102.074 102.113 102.406 101.806 102.897 101.902C103.23 101.969 103.447 102.24 103.393 102.656V102.662Z" fill="white"/>
<path d="M80.7921 109.949L83.2434 115.277L84.6719 114.626C84.9503 114.5 85.3074 114.445 85.5193 114.91C85.7311 115.368 85.4587 115.609 85.1803 115.735L83.7519 116.386L85.6948 120.606C85.8401 120.919 85.834 121.293 85.3316 121.522C84.8171 121.757 84.5205 121.522 84.3753 121.209L79.4726 110.551C79.3212 110.226 79.3394 109.846 79.8539 109.611C80.3442 109.388 80.6468 109.629 80.7921 109.949ZM94.2413 115.488C94.3926 115.82 94.3442 116.157 94.0536 116.29L88.2793 118.924C87.9222 119.087 87.6317 118.9 87.4803 118.575C87.329 118.249 87.3774 117.905 87.7346 117.743L91.6567 115.952C91.6144 114.922 91.4267 113.891 91.1665 112.975L86.6995 115.012C86.4635 115.121 86.1185 115.169 85.9066 114.705C85.7008 114.259 85.9551 114.011 86.1972 113.903L90.7791 111.811C90.5551 111.215 90.2828 110.702 90.0104 110.347C89.4112 109.569 88.7756 109.43 87.789 109.72C87.0143 109.949 85.8824 110.576 84.7627 111.576C84.4237 111.878 84.1574 111.853 83.885 111.546C83.6187 111.239 83.6005 110.865 83.9334 110.57C85.0714 109.539 86.3787 108.767 87.904 108.327C89.4414 107.881 90.5309 108.309 91.3299 109.485C92.2862 110.907 92.9036 113.354 92.8007 115.422L93.5149 115.096C93.8055 114.964 94.096 115.151 94.2473 115.476L94.2413 115.488Z" fill="white"/>
<path d="M32.2551 116.218C32.4367 115.838 32.7393 115.742 33.1328 115.929L39.5547 118.955C39.8513 118.774 40.039 118.509 40.1721 118.304C40.3779 117.972 40.3658 117.689 39.9482 117.382C39.5911 117.116 38.6105 116.61 37.6421 116.152C36.0381 115.398 34.4644 114.717 33.6473 114.446C33.1994 114.301 32.9693 114.078 33.0904 113.686C33.2175 113.252 33.4596 113.048 33.8894 113.186C34.7307 113.439 36.141 114.06 37.5271 114.693L37.5634 114.615L38.0597 113.566L33.738 111.528C33.3204 111.33 33.1691 111.07 33.3628 110.66C33.5565 110.257 33.853 110.202 34.2707 110.401L44.2456 115.109C44.6633 115.308 44.8025 115.561 44.6088 115.971C44.4151 116.375 44.1306 116.435 43.713 116.236L39.3671 114.187L38.8708 115.236L38.8284 115.326C39.9724 115.899 41.0861 116.532 41.4977 116.905C42.0364 117.4 42.2724 117.779 41.9516 118.448C41.764 118.84 41.2616 119.292 40.735 119.521L40.8682 119.582C41.2616 119.769 41.3766 120.064 41.2011 120.444C41.0195 120.823 40.7169 120.92 40.3234 120.733L32.5759 117.08C32.1825 116.893 32.0675 116.598 32.2491 116.218H32.2551ZM45.3472 111.842C44.6754 113.252 42.7748 113.271 39.7 111.818C36.6434 110.377 35.457 108.906 36.1289 107.496C36.8128 106.055 38.7013 106.037 41.764 107.478C44.8388 108.924 46.0312 110.401 45.3472 111.842ZM37.4726 108.117C37.1639 108.768 38.0779 109.648 40.2447 110.673C42.4237 111.703 43.7009 111.854 44.0096 111.203C44.3182 110.552 43.3861 109.678 41.2071 108.647C39.0403 107.622 37.7813 107.466 37.4726 108.117Z" fill="white"/>
<path d="M29.3256 110.631L27.0316 113.379C26.8258 113.626 26.5353 113.59 26.1661 113.283C25.7847 112.969 25.7 112.692 25.8937 112.457C24.4834 111.589 23.0126 110.528 21.7718 109.497C19.8288 107.888 19.5565 106.948 20.2102 106.158C20.4765 105.832 20.9426 105.615 21.4086 105.495L21.342 105.441C21.0454 105.23 21.0091 104.94 21.2876 104.603C21.5781 104.259 21.8626 104.229 22.1834 104.458C23.5634 105.41 26.5534 107.936 28.3269 109.594C28.5206 109.473 28.7688 109.546 29.0774 109.799C29.4346 110.094 29.5253 110.395 29.3317 110.631H29.3256ZM22.4436 106.254C22.1047 106.411 21.8081 106.634 21.6568 106.809C21.3239 107.213 21.5539 107.719 22.6615 108.635C23.8479 109.612 25.2824 110.655 26.6563 111.541L27.54 110.486C26.1116 109.208 23.975 107.448 22.4436 106.254ZM21.9897 102.312C22.2681 101.981 22.5707 102.005 22.9279 102.3L26.6019 105.338L27.2495 104.56L25.0947 102.776C24.3563 102.167 24.3018 101.462 24.7013 100.986C24.9313 100.709 25.2521 100.462 25.5547 100.323C25.3429 100.124 25.3005 99.9251 25.5426 99.6357C25.7908 99.3343 26.039 99.3343 26.2629 99.5152L32.3641 104.56C32.6788 104.368 32.9028 104.139 32.8846 103.94C32.8665 103.735 32.7454 103.542 31.9767 102.855C30.3304 101.366 28.8172 100.166 26.9529 98.834C26.6019 98.5808 26.5474 98.2553 26.8077 97.9419C27.0377 97.6646 27.2858 97.6586 27.7035 97.9479C29.7796 99.4187 31.6317 100.932 33.4294 102.626C34.4704 103.596 34.6883 104.265 34.1678 104.886C33.9923 105.097 33.7744 105.29 33.4596 105.465C33.6836 105.67 33.7017 105.947 33.4959 106.188C33.2538 106.477 32.9754 106.453 32.7394 106.26L26.6261 101.209C26.2871 101.414 26.0692 101.649 26.039 101.8C26.0026 101.981 26.0874 102.101 26.5898 102.517L31.8738 106.887C32.2188 107.171 32.2793 107.466 32.0191 107.779C31.777 108.069 31.4925 108.075 31.1293 107.779L28.3572 105.489L27.7095 106.266L31.4078 109.323C31.7649 109.618 31.8314 109.901 31.553 110.233C31.2746 110.564 30.9841 110.552 30.6269 110.257L22.1349 103.234C21.7778 102.939 21.6991 102.65 21.9776 102.312H21.9897Z" fill="white"/>
<path d="M21.003 99.1286L16.1366 102.673C15.8461 102.884 15.5193 102.781 15.2408 102.408C14.9564 102.022 14.9745 101.702 15.2711 101.491L16.4937 100.605L12.4324 95.0718C12.0631 95.3551 11.7 95.6444 11.3368 95.9579C11.0705 96.187 10.7315 96.1146 10.4773 95.7951C10.1444 95.3913 10.1565 95.0597 10.4349 94.8066C11.7847 93.5528 13.3947 92.51 14.8232 92.2025L14.7324 92.1061C14.4842 91.8167 14.5448 91.5093 14.8958 91.2501C15.2469 90.997 15.5072 91.0572 15.7735 91.3647C16.3485 92.0217 17.208 93.1489 18.0614 94.3364L20.0104 92.9198C18.9814 91.5395 17.9161 90.2133 17.0082 89.1946C16.7177 88.8691 16.7359 88.5496 17.1474 88.2543C17.5348 87.971 17.783 88.0915 18.1219 88.4592C20.192 90.786 23.0004 94.6197 24.5984 97.2901C24.8405 97.7241 24.8768 97.9833 24.4894 98.2666C24.0778 98.568 23.7752 98.4956 23.5573 98.1219C22.8491 96.9344 21.8928 95.5179 20.8699 94.0953L18.9027 95.5299C19.508 96.3798 20.0528 97.1996 20.4522 97.8386C20.652 97.8145 20.8517 97.9411 21.0394 98.2003C21.3057 98.5619 21.2996 98.9236 21.0091 99.1346L21.003 99.1286ZM15.6282 93.2032C14.9442 93.4503 14.1998 93.8481 13.419 94.3605L17.4743 99.8881L19.4112 98.4775C18.479 97.061 16.8509 94.7704 15.6282 93.2032Z" fill="white"/>
<path d="M4.79377 79.9549C5.21141 79.7861 5.46563 79.9549 5.61695 80.3286L9.20017 89.2438C9.35149 89.6176 9.27886 89.9129 8.86122 90.0817C8.44358 90.2505 8.18936 90.0817 8.03805 89.708L6.5067 85.8923L5.42931 86.3203C5.14483 86.4348 4.83009 86.3083 4.64851 85.8501C4.46087 85.38 4.60614 85.0846 4.89062 84.9761L5.96801 84.5481L4.45482 80.7867C4.3035 80.413 4.37613 80.1176 4.79377 79.9549ZM8.76437 79.0869C9.98098 78.6046 11.3549 79.3461 12.5413 81.8959L14.3511 81.1725C13.6853 79.5992 12.9952 78.0682 12.3779 76.8927C12.1781 76.519 12.1721 76.1513 12.6563 75.9524C13.086 75.7776 13.3039 76.085 13.5158 76.5009C14.8898 79.1471 16.6935 83.6319 17.5287 86.477C17.6619 86.9231 17.7164 87.2908 17.2866 87.4656C16.8024 87.6585 16.5482 87.3872 16.4332 86.9773C16.064 85.7055 15.5071 84.1201 14.8958 82.5288L13.086 83.2521C14.0061 85.9225 13.5339 87.4053 12.3052 87.8936C10.9857 88.418 9.4907 87.5078 8.24384 84.4034C6.99697 81.2991 7.44488 79.6113 8.76437 79.0869ZM11.7605 86.5373C12.396 86.2841 12.5716 85.2172 11.6939 83.0291C10.8163 80.841 9.94466 80.19 9.30912 80.4431C8.67358 80.6963 8.492 81.7632 9.3757 83.9514C10.2534 86.1395 11.1249 86.7905 11.7605 86.5373Z" fill="white"/>
<path d="M0.0121042 65.9085C-0.0484233 65.4323 0.139212 65.2032 0.544746 65.155L8.37094 64.1302C8.77648 64.076 9.03069 64.2508 9.09122 64.721C9.15175 65.167 8.94596 65.4081 8.54647 65.4624L0.720275 66.4871C0.3329 66.5354 0.0726316 66.3666 0.0121042 65.9085ZM9.18807 67.4938C9.24859 67.97 9.0428 68.181 8.64332 68.2352L4.5214 68.7717L4.70903 70.2063C4.7514 70.5499 4.56377 70.779 4.13402 70.8332C3.70428 70.8875 3.46217 70.7187 3.41375 70.3751L3.22611 68.9405L1.22265 69.1997C0.817119 69.2539 0.581062 69.0972 0.514482 68.621C0.453955 68.1749 0.64159 67.9157 1.02897 67.8675L8.46174 66.897C8.86727 66.8428 9.12149 67.0176 9.18201 67.4878L9.18807 67.4938ZM7.8262 75.8062C5.74405 74.1486 4.32166 73.9014 2.03372 74.022C1.62819 74.0461 1.42239 73.7206 1.42845 73.2986C1.42845 72.937 1.56766 72.6958 2.03372 72.6537C2.82663 72.5632 3.60138 72.5512 4.4064 72.6657C5.09641 71.5686 6.00432 70.4595 6.76697 69.7904C7.11197 69.495 7.55382 69.5433 7.80804 69.8869C8.02594 70.2063 8.01989 70.5138 7.6083 70.9176C7.11803 71.4179 6.48854 72.1172 5.83485 73.0153C6.75486 73.3469 7.69304 73.8954 8.71595 74.7393C8.98227 74.9684 9.06701 75.4084 8.73411 75.7761C8.50411 76.0232 8.1591 76.0715 7.83225 75.8062H7.8262ZM9.75702 72.9249C9.69044 72.4367 9.85992 72.1413 10.2594 72.087C10.6891 72.0328 11.4578 71.9303 11.7665 71.6108C12.3718 70.9779 12.3173 69.8748 12.0571 68.2593C11.7726 66.5293 11.2823 64.8415 10.901 64.0579C10.7194 63.6601 10.792 63.3406 11.2218 63.1718C11.6636 62.9849 11.9118 63.0512 12.1297 63.5033C12.5716 64.3955 13.1224 66.2641 13.3887 67.9519C13.5884 69.2238 13.655 70.6162 13.5218 71.4059C13.3402 72.4668 12.6442 73.0997 11.7 73.3529C11.2642 73.4795 10.8163 73.5578 10.441 73.588C10.0778 73.6061 9.81755 73.4192 9.75097 72.9189L9.75702 72.9249Z" fill="white"/>
<path d="M1.61004 61.3579C1.24688 61.3157 0.980557 61.0927 1.02293 60.7792L1.76741 54.4982C1.81584 54.1124 2.12453 53.9557 2.48769 53.9979C2.85086 54.0401 3.11718 54.2631 3.06875 54.6489L2.56032 58.9166C3.46824 59.4169 4.44273 59.7967 5.3688 60.0499L5.94381 55.1914C5.97407 54.9322 6.11328 54.6127 6.62172 54.673C7.11199 54.7333 7.19067 55.0769 7.16041 55.3361L6.56724 60.3211C7.19673 60.4356 7.77779 60.4778 8.21964 60.4296C9.20019 60.3271 9.64809 59.857 9.91441 58.8684C10.1263 58.0908 10.1747 56.8008 9.89625 55.324C9.81757 54.8779 9.97494 54.6609 10.3744 54.5946C10.78 54.5283 11.1068 54.7092 11.1855 55.1432C11.476 56.6501 11.4579 58.1631 11.0402 59.6882C10.6226 61.2253 9.69046 61.9305 8.26201 61.9969C6.54303 62.0692 4.12798 61.3217 2.409 60.1584L2.31821 60.9359C2.2819 61.2554 1.96715 61.4061 1.61004 61.3639V61.3579ZM13.3645 52.8043L7.52357 52.1172L7.34199 53.6663C7.30568 53.9677 7.16646 54.2993 6.65803 54.245C6.1496 54.1908 6.09513 53.8291 6.13144 53.5277L6.31303 51.9785L1.68268 51.436C1.33767 51.3938 1.02293 51.1949 1.08951 50.6524C1.15609 50.0918 1.50715 49.9592 1.85215 50.0014L13.54 51.3757C13.9032 51.4179 14.2119 51.6289 14.1453 52.1895C14.0848 52.72 13.7155 52.8526 13.3705 52.8104L13.3645 52.8043Z" fill="white"/>
<path d="M12.2024 35.5528C12.2931 36.5836 12.9287 37.6385 13.9334 38.0424C15.1561 38.5366 16.0701 37.6385 16.4816 36.5716C16.7782 35.806 16.8327 35.0706 17.3896 34.4136C18.1885 33.4793 19.3204 32.0567 18.3398 30.8391C17.8798 30.2724 17.1051 29.959 16.3727 29.971C16.1064 29.971 15.7916 30.0072 15.5435 30.0976C13.8427 30.7064 12.6563 32.3762 12.3113 34.082C12.2145 34.5462 12.166 35.0706 12.2084 35.5468L12.2024 35.5528Z" fill="white"/>
<path d="M10.1747 34.9014C11.0765 34.6121 11.4336 33.7199 11.0644 32.864C10.5863 31.7549 8.5949 30.9351 7.47514 31.4957C6.95461 31.7549 6.59749 32.5023 6.61565 33.093C6.62776 33.6657 7.06961 34.1539 7.53567 34.4433C7.78988 34.6 8.10463 34.7628 8.40121 34.8411C8.90359 34.9677 9.66624 35.0642 10.1747 34.9014Z" fill="white"/>
<path d="M10.6589 27.2999C10.3018 27.2758 9.95074 27.3361 9.68442 27.541C8.93388 28.1137 8.44361 29.0902 8.97625 29.8919C9.23046 30.2777 9.70258 30.6454 10.2292 30.9227C10.7558 31.2 11.3308 31.3928 11.7908 31.3868C12.1479 31.3868 12.4566 31.2361 12.6987 30.983C13.074 30.5972 13.3948 29.8618 13.2132 29.3193C13.0134 28.7225 12.4868 28.1137 11.9724 27.758C11.6455 27.529 11.1371 27.3361 10.6589 27.306V27.2999Z" fill="white"/>
<path d="M8.3104 37.4454C8.82488 38.446 10.8102 38.5907 11.3912 37.5961C11.7423 36.9994 11.3186 36.4629 10.7739 36.1916C9.98701 35.8058 8.40119 35.6853 8.21961 36.8607C8.18329 37.0837 8.2196 37.2766 8.3104 37.4454Z" fill="white"/>
<path d="M13.7942 29.0178C14.0121 29.265 14.2966 29.4458 14.6598 29.4699C14.9806 29.494 15.259 29.2529 15.4224 29.0058C15.9187 28.2523 15.6343 27.3421 14.9987 26.7453C14.5629 26.3294 13.7821 25.9617 13.2676 26.456C12.7592 26.9442 13.1103 27.6495 13.31 28.1739C13.4189 28.4693 13.5763 28.7767 13.7942 29.0239V29.0178Z" fill="white"/>
<path d="M113.568 35.5528C113.477 36.5836 112.841 37.6385 111.837 38.0424C110.614 38.5366 109.7 37.6385 109.288 36.5716C108.992 35.806 108.937 35.0706 108.38 34.4136C107.581 33.4793 106.45 32.0567 107.43 30.8391C107.89 30.2724 108.665 29.959 109.397 29.971C109.664 29.971 109.978 30.0072 110.227 30.0976C111.927 30.7064 113.114 32.3762 113.459 34.082C113.556 34.5462 113.604 35.0706 113.562 35.5468L113.568 35.5528Z" fill="white"/>
<path d="M115.601 34.9014C114.7 34.6121 114.342 33.7199 114.712 32.864C115.19 31.7549 117.181 30.9351 118.301 31.4957C118.821 31.7549 119.179 32.5023 119.16 33.093C119.148 33.6657 118.706 34.1539 118.24 34.4433C117.986 34.6 117.671 34.7628 117.375 34.8411C116.872 34.9677 116.11 35.0642 115.601 34.9014Z" fill="white"/>
<path d="M115.117 27.287C115.474 27.2629 115.813 27.3533 116.08 27.5583C116.83 28.1309 117.351 29.0954 116.812 29.9031C116.558 30.2889 116.08 30.6626 115.553 30.9399C115.026 31.2172 114.445 31.386 113.985 31.3799C113.628 31.3799 113.32 31.2292 113.077 30.9761C112.702 30.5903 112.357 29.8489 112.539 29.3124C112.738 28.7156 113.289 28.1189 113.804 27.7572C114.131 27.5281 114.633 27.3232 115.117 27.287Z" fill="white"/>
<path d="M117.466 37.4454C116.951 38.446 114.966 38.5907 114.385 37.5961C114.034 36.9994 114.457 36.4629 115.002 36.1916C115.789 35.8058 117.375 35.6853 117.556 36.8607C117.593 37.0837 117.556 37.2766 117.466 37.4454Z" fill="white"/>
<path d="M111.976 29.0178C111.758 29.265 111.473 29.4458 111.11 29.4699C110.789 29.494 110.511 29.2529 110.348 29.0058C109.851 28.2523 110.136 27.3421 110.771 26.7453C111.207 26.3294 111.988 25.9617 112.502 26.456C113.011 26.9442 112.66 27.6495 112.46 28.1739C112.351 28.4693 112.194 28.7767 111.976 29.0239V29.0178Z" fill="white"/>
<path d="M58.8932 118.544C58.0519 117.935 57.4708 116.844 57.6403 115.783C57.8461 114.487 59.0929 114.168 60.2188 114.367C61.0298 114.512 61.6956 114.843 62.543 114.704C63.7596 114.506 65.5694 114.27 66.1081 115.735C66.3623 116.416 66.2291 117.242 65.8418 117.863C65.7025 118.092 65.5089 118.339 65.3031 118.508C63.8988 119.647 61.853 119.792 60.2067 119.213C59.7587 119.057 59.2806 118.827 58.8932 118.544Z" fill="white"/>
<path d="M58.409 120.613C59.1232 119.992 60.0735 120.149 60.6243 120.902C61.3325 121.879 61.0056 124.006 59.9524 124.669C59.4622 124.977 58.639 124.899 58.1306 124.579C57.6403 124.272 57.4527 123.645 57.4406 123.096C57.4406 122.795 57.4587 122.445 57.5434 122.156C57.6887 121.662 58.0035 120.962 58.409 120.613Z" fill="white"/>
<path d="M65.2062 124.121C65.0428 124.44 64.7886 124.681 64.4799 124.802C63.6023 125.145 62.5007 125.091 62.0891 124.223C61.8893 123.807 61.8106 123.204 61.847 122.614C61.8833 122.023 62.0346 121.438 62.2767 121.046C62.4643 120.745 62.7488 120.558 63.0878 120.48C63.6144 120.359 64.4254 120.444 64.7946 120.878C65.2062 121.36 65.4362 122.131 65.4786 122.758C65.5089 123.156 65.4241 123.693 65.2062 124.121Z" fill="white"/>
<path d="M55.2555 120.894C54.6623 119.936 55.5582 118.17 56.7142 118.188C57.4103 118.2 57.6524 118.833 57.604 119.435C57.5313 120.303 56.8171 121.726 55.7155 121.268C55.5097 121.183 55.3584 121.051 55.2555 120.888V120.894Z" fill="white"/>
<path d="M65.3334 120.552C65.2305 120.238 65.2244 119.907 65.3878 119.575C65.5331 119.286 65.8842 119.177 66.1807 119.165C67.0826 119.129 67.7181 119.841 67.9118 120.69C68.045 121.281 67.9602 122.131 67.2702 122.318C66.5923 122.505 66.1626 121.836 65.8115 121.396C65.6178 121.149 65.4302 120.859 65.3334 120.546V120.552Z" fill="white"/>
</g>
<defs>
<clipPath id="clip0_126_267">
<rect width="126" height="125" fill="white"/>
</clipPath>
</defs>
</svg>
