<svg width="155" height="38" viewBox="0 0 155 38" fill="none" xmlns="http://www.w3.org/2000/svg">
<g clip-path="url(#clip0_51_2019)">
<path d="M34.8562 11.599L18.2583 0.147643C17.973 -0.0463511 17.5964 -0.0520568 17.3111 0.147643L0.370871 11.5419C0.136937 11.696 0 11.9585 0 12.2437V37.1549C0 37.6227 0.376577 37.9993 0.844444 37.9993H3.15526C3.42342 37.9993 3.68018 37.8681 3.83994 37.6512C3.94835 37.4972 4.00541 37.3146 3.9997 37.132C4.04535 36.9323 4.43904 35.5915 7.71982 30.9014C8.2961 30.0741 8.79249 29.3837 9.21471 28.7846C11.6453 25.3612 11.8793 25.0017 12.6324 21.8921C13.2943 22.1831 13.8706 22.3314 14.3727 22.3314C14.6465 22.3314 14.8976 22.2858 15.1258 22.2059C15.5252 22.0576 15.7934 21.8008 15.9417 21.5555C16.3583 21.0762 16.7976 19.878 16.2784 16.9167C15.8676 14.5488 16.2613 13.9155 16.3925 13.7729C16.4553 13.7044 16.5865 13.5675 16.6435 13.3392C16.7577 12.8885 16.4781 12.432 16.0273 12.3179C15.685 12.2323 15.3369 12.3693 15.1429 12.6431C14.658 13.1681 14.0988 14.2236 14.618 17.2077C15.0345 19.6041 14.7036 20.363 14.6465 20.4714C14.6009 20.5227 14.561 20.5741 14.5267 20.6311C14.4069 20.6654 13.8706 20.7281 12.4955 19.9407L9.32883 17.9266C9.17477 17.7669 8.72973 17.1963 9.29459 16.3404C10.5613 14.4233 13.5339 11.1939 16.1243 10.6804C19.3423 10.0413 21.4477 9.8017 24.1237 12.8086C24.2778 12.9798 24.4946 13.0825 24.7228 13.0882L28.3402 13.208C28.5799 13.7158 28.8709 14.914 27.5928 16.6942C26.7712 17.0651 24.021 18.4858 21.773 21.6467C21.5048 22.029 21.5904 22.554 21.9727 22.8221C22.355 23.0903 22.8799 23.0047 23.148 22.6224C25.4589 19.3702 28.4144 18.172 28.4372 18.1606C28.5799 18.1035 28.7111 18.0065 28.8024 17.8867C31.5583 14.2521 29.5156 11.9128 29.43 11.8101C29.276 11.6389 29.0592 11.5419 28.8309 11.5305L25.1279 11.4107C21.7787 7.83323 18.7318 8.43803 15.7877 9.02002C11.594 9.85305 7.91952 15.3476 7.87958 15.4047C6.73273 17.1392 7.61141 18.657 8.23333 19.2161C8.26757 19.2446 8.3018 19.2732 8.34174 19.296L11.0862 21.0419C10.3102 24.3056 10.2075 24.454 7.82823 27.8032C7.40601 28.4023 6.90961 29.0984 6.32763 29.9257C3.81712 33.5146 2.83574 35.3404 2.48198 36.3047H1.67748V12.6888L17.7733 1.85935L33.5324 12.7344V36.3104H17.0658C16.9574 35.7798 16.9688 34.7527 17.1057 33.817C17.1628 33.4119 16.9288 33.0239 16.5408 32.8984C14.0303 32.0482 13.7393 30.7302 13.745 30.1311L14.8691 29.4807C15.1315 29.3266 15.2913 29.0413 15.2856 28.7389C15.2456 26.5023 17.9616 26.0002 18.0757 25.9831C18.4808 25.9146 18.7775 25.5609 18.7775 25.15V24.2428C23.2679 25.5552 24.9453 31.9341 24.9682 32.0254C25.0823 32.4762 25.5387 32.75 25.9895 32.6359C26.4402 32.5218 26.7141 32.0654 26.6 31.6146C26.5144 31.2666 24.3976 23.1416 18.03 22.3828C17.7904 22.3543 17.5507 22.4284 17.3682 22.5882C17.1856 22.7479 17.0829 22.9762 17.0829 23.2215V24.4939C15.6793 24.9332 13.8249 26.0687 13.6081 28.2597L12.5297 28.8873C12.3414 28.9957 12.1988 29.1783 12.1417 29.3894C11.8279 30.5248 12.1417 32.9041 15.3483 34.2564C15.2514 35.2777 15.2228 36.9152 15.8619 37.6969C16.0216 37.8909 16.2613 38.005 16.5123 38.005H34.3655C34.8333 38.005 35.2099 37.6284 35.2099 37.1606V12.2951C35.2099 12.0155 35.073 11.7588 34.8447 11.599H34.8562Z" fill="#24B1A3"/>
<path d="M21.8586 14.208C21.8586 13.7059 21.4535 13.3008 20.9514 13.3008C20.4493 13.3008 20.0442 13.7059 20.0442 14.208C20.0442 14.7101 20.4493 15.1152 20.9514 15.1152C21.4535 15.1152 21.8586 14.7101 21.8586 14.208Z" fill="#24B1A3"/>
<path d="M17.5509 28.5449C17.18 28.5449 16.8833 28.8473 16.8833 29.2125C16.8833 29.5777 17.1857 29.8801 17.5509 29.8801C17.916 29.8801 18.2184 29.5777 18.2184 29.2125C18.2184 28.8473 17.916 28.5449 17.5509 28.5449Z" fill="#24B1A3"/>
</g>
<path d="M45.0029 23.5707C45.0029 22.7866 45.462 22.3327 46.2406 22.3327H52.2497V20.9711C50.8322 20.9092 49.0555 20.7854 48.2569 20.5378C47.2388 20.2077 46.56 19.7744 46.56 18.7428C46.56 18.0413 46.9793 17.2986 47.4783 16.8447C46.7397 16.8034 46.3205 16.3702 46.3205 15.6274C46.3205 14.8847 46.7796 14.4102 47.5582 14.4102H59.5364C60.315 14.4102 60.7742 14.8641 60.7742 15.6274C60.7742 16.3908 60.315 16.8447 59.5364 16.8447H49.8341C49.6544 17.1129 49.5346 17.4018 49.5146 17.67C49.4747 18.0826 49.5745 18.2683 50.0736 18.3715C50.6526 18.4952 52.1299 18.5571 53.6072 18.5571C55.6435 18.5571 58.3785 18.4746 59.5364 18.3302C60.2751 18.2477 60.9139 18.4333 61.0337 19.238C61.1535 20.0014 60.8939 20.5997 60.0555 20.7235C58.9375 20.8885 56.7814 20.9711 54.9448 20.9917V22.3327H60.9339C61.7125 22.3327 62.1716 22.7866 62.1716 23.5707C62.1716 24.3547 61.7125 24.8085 60.9339 24.8085H46.2377C45.4592 24.8085 45 24.3547 45 23.5707H45.0029ZM46.4402 29.3888C46.4402 27.0987 49.0156 25.8195 53.6072 25.8195C58.1988 25.8195 60.7342 27.0987 60.7342 29.3888C60.7342 31.6789 58.1789 32.9994 53.6072 32.9994C49.0355 32.9994 46.4402 31.6996 46.4402 29.3888ZM58.0391 29.4094C58.0391 28.6461 56.5219 28.254 53.6072 28.254C50.6925 28.254 49.1353 28.6461 49.1353 29.4094C49.1353 30.1728 50.6526 30.5648 53.6072 30.5648C56.5618 30.5648 58.0391 30.1728 58.0391 29.4094Z" fill="#1D1D1D"/>
<path d="M65.7652 31.1043C65.7652 30.5473 66.0646 30.1553 66.5238 29.8251H66.1245C65.3659 29.8251 65.1064 29.33 65.1064 28.7729C65.1064 28.0508 65.5056 27.7207 66.1245 27.7207H76.5855C76.6853 27.5144 76.7252 27.3081 76.6853 27.1637C76.6055 26.8954 76.3659 26.8542 75.1681 26.8542H66.5038C65.7652 26.8542 65.286 26.4622 65.286 25.6988C65.286 24.9767 65.7252 24.5847 66.5038 24.5847H71.0156V23.6356H64.9267C64.1481 23.6356 63.7688 23.223 63.7688 22.439C63.7688 21.655 64.1481 21.2423 64.9267 21.2423H79.7825C80.5611 21.2423 80.9404 21.655 80.9404 22.439C80.9404 23.223 80.5611 23.6356 79.7825 23.6356H73.7136V24.5847H76.0892C78.1056 24.5847 79.3034 24.8116 79.3833 26.0083C79.4232 26.6685 79.0439 27.2256 78.4649 27.7207H78.8442C79.543 27.7207 79.7626 28.0921 79.7626 28.7523C79.7626 29.4125 79.543 29.8251 78.8442 29.8251H68.4232C68.3633 30.0108 68.3433 30.1553 68.3833 30.2997C68.4631 30.5679 68.9023 30.6092 70.1001 30.671C72.7553 30.7948 75.9096 30.733 78.5647 30.5679C79.3034 30.5266 79.7825 30.9393 79.7825 31.7026C79.7825 32.4247 79.3433 32.7342 78.5647 32.7961C75.5303 33.0024 72.0167 33.085 68.9822 32.8787C66.9658 32.7342 65.768 32.2391 65.768 31.1043H65.7652ZM65.3659 19.5505V15.0735C65.3659 14.3926 65.9249 14.0625 66.7035 14.0625C67.2624 14.0625 67.7216 14.2276 67.9212 14.5577C70.2171 14.1038 75.3677 14.0831 77.1245 14.3926C78.522 14.6402 79.2606 15.0528 79.4603 16.0844C79.58 16.724 79.2207 17.4461 78.6617 17.8794C79.3405 17.8381 79.7397 18.2507 79.7397 18.9935C79.7397 19.7775 79.3405 20.2108 78.6417 20.2727C76.1463 20.4996 70.5165 20.4377 67.8214 20.1901C67.5819 20.4377 67.1826 20.5615 66.7035 20.5615C65.9448 20.5615 65.3659 20.2314 65.3659 19.5505ZM76.3459 18.0032C76.6254 17.6524 76.7652 17.4255 76.7652 17.1985C76.7652 16.8478 76.5456 16.7034 75.8668 16.6208C73.9902 16.4145 69.9376 16.497 68.061 16.8065V17.9619C70.1372 18.0651 73.7107 18.0857 76.3459 18.0032Z" fill="#1D1D1D"/>
<path d="M82.5317 29.4543C82.5317 28.6703 82.9908 28.1339 83.7694 28.2164C85.5462 28.3815 87.6424 28.4846 89.7785 28.5259V25.3899C88.5208 25.3486 87.3828 25.2867 86.5244 25.2248C86.2848 25.4724 85.9255 25.5962 85.4663 25.5962C84.7077 25.5962 84.1288 25.1629 84.1288 24.4614V15.8993C84.1288 15.1978 84.6877 14.7852 85.4663 14.7852C86.2449 14.7852 86.8239 15.1978 86.8239 15.8993V17.7355H95.5679L95.4681 16.0643C95.4082 15.3628 95.9872 14.9089 96.6859 14.8883C97.5643 14.847 98.0834 15.239 98.1632 15.9405C98.4826 18.602 98.3229 21.2223 97.4445 22.8728C98.1033 22.8522 98.5026 23.3473 98.5026 24.0901C98.5026 24.8947 98.0834 25.2455 97.3647 25.3073C96.1868 25.4105 94.3701 25.4518 92.4736 25.4311V28.5259C94.6097 28.4846 96.6859 28.3815 98.4627 28.2164C99.2413 28.1339 99.7004 28.6497 99.7004 29.4543C99.7004 30.259 99.2413 30.6097 98.4627 30.6922C94.1705 31.1049 88.0616 31.1049 83.7666 30.6922C82.988 30.6097 82.5288 30.2383 82.5288 29.4543H82.5317ZM94.932 22.9966C95.2514 22.2951 95.4311 21.3048 95.5309 20.0875H86.8267V22.8728C88.883 22.976 92.2968 23.0378 94.932 22.9966Z" fill="#1D1D1D"/>
<path d="M101.298 29.6573C101.298 28.8733 101.757 28.3369 102.535 28.4194C104.312 28.5844 106.408 28.6876 108.544 28.7289V26.7276C105.051 26.48 103.094 25.2008 103.094 23.0964C103.094 20.765 105.55 19.4652 109.882 19.4652C114.214 19.4652 116.63 20.765 116.63 23.0964C116.63 25.1802 114.693 26.4594 111.239 26.7276V28.7289C113.376 28.6876 115.452 28.5844 117.229 28.4194C118.007 28.3369 118.466 28.8527 118.466 29.6573C118.466 30.4619 118.007 30.8127 117.229 30.8952C112.936 31.3078 106.827 31.3078 102.532 30.8952C101.754 30.8127 101.295 30.4413 101.295 29.6573H101.298ZM102.256 17.2989C102.256 16.5561 102.595 16.1022 103.294 16.1022H108.544V15.0087C108.544 14.4104 109.103 14.0391 109.882 14.0391C110.661 14.0391 111.239 14.4104 111.239 15.0087V16.1022H116.47C117.169 16.1022 117.508 16.5561 117.508 17.2989C117.508 18.0416 117.169 18.4955 116.47 18.4955H103.291C102.592 18.4955 102.253 18.0416 102.253 17.2989H102.256ZM114.037 23.0758C114.037 22.2505 112.52 21.776 109.885 21.776C107.25 21.776 105.692 22.2505 105.692 23.0758C105.692 23.9423 107.21 24.4168 109.885 24.4168C112.56 24.4168 114.037 23.9423 114.037 23.0758Z" fill="#1D1D1D"/>
<path d="M120.063 24.7085C119.664 24.2133 119.664 23.5325 120.203 22.996C122.759 20.4583 123.338 18.5808 123.577 15.3829C123.637 14.5783 124.336 14.2688 125.034 14.372C125.653 14.4545 126.112 14.8052 126.093 15.6511C126.073 16.7859 125.953 17.9206 125.653 19.0347C126.951 20.1901 128.189 21.5518 128.907 22.6866C129.347 23.3674 129.167 24.1927 128.468 24.5641C127.869 24.8942 127.27 24.791 126.691 24.007C126.192 23.3261 125.494 22.5009 124.595 21.5931C123.976 22.6659 123.118 23.7801 121.94 24.8942C121.481 25.3274 120.622 25.3893 120.063 24.7085ZM125.114 32.2597C123.437 31.6407 122.858 30.506 122.659 29.0824C122.559 28.4222 122.539 28.0302 122.599 27.4731C122.659 26.8542 123.118 26.3796 123.936 26.3796C124.755 26.3796 125.274 26.7098 125.274 27.5144C125.274 28.1334 125.274 28.9174 125.593 29.3506C126.152 30.114 127.29 30.341 129.626 30.2997C131.802 30.2584 134.357 29.8664 135.376 29.5569C136.094 29.33 136.753 29.5157 136.973 30.3203C137.172 31.0837 136.973 31.5995 136.154 31.8883C134.916 32.3216 131.962 32.693 129.766 32.7755C128.508 32.8168 126.212 32.6723 125.114 32.2597ZM127.829 18.9522C127.829 18.1682 128.169 17.7143 128.788 17.7143H130.125V15.3829C130.125 14.6814 130.584 14.1863 131.403 14.1863C132.161 14.1863 132.681 14.6402 132.681 15.3623V25.6782C132.681 26.4003 132.201 26.8954 131.403 26.8954C130.604 26.8954 130.125 26.4003 130.125 25.6782V20.1901H128.788C128.169 20.1901 127.829 19.7362 127.829 18.9522ZM134.081 25.9258V15.2591C134.081 14.537 134.58 14.0625 135.359 14.0625C136.177 14.0625 136.636 14.5577 136.636 15.2591V25.9258C136.636 26.6479 136.157 27.143 135.359 27.143C134.56 27.143 134.081 26.6685 134.081 25.9258Z" fill="#1D1D1D"/>
<path d="M139.209 26.2759C138.809 23.635 139.428 20.334 140.846 17.755H140.047C139.388 17.755 139.029 17.1567 139.029 16.5171C139.029 15.8775 139.388 15.2792 140.047 15.2792H148.332C149.091 15.2792 149.45 15.8775 149.45 16.5171C149.45 17.1567 149.091 17.755 148.332 17.755H143.281C142.762 18.8278 142.363 20.0864 142.084 21.3243H148.152C148.911 21.3243 149.25 21.8194 149.25 22.5209C149.25 23.2637 148.911 23.7588 148.152 23.7588H141.744C141.684 24.5841 141.724 25.3062 141.844 25.8633C142.123 27.0805 142.802 27.5344 144.08 27.6582C145.178 27.7614 146.835 27.6789 148.771 27.1424C149.55 26.9361 150.049 27.2249 150.249 27.9264C150.448 28.6279 150.189 29.2881 149.43 29.5151C147.394 30.1134 145.358 30.3197 143.142 30.0515C140.806 29.7627 139.528 28.4216 139.209 26.2759ZM149.73 22.4178C149.73 21.6337 150.089 21.1799 150.708 21.1799H152.305V15.1554C152.305 14.4333 152.864 14 153.642 14C154.421 14 155 14.4333 155 15.1554V31.6225C155 32.3652 154.441 32.7985 153.642 32.7985C152.844 32.7985 152.305 32.3446 152.305 31.6225V23.6586H150.708C150.089 23.6586 149.73 23.2047 149.73 22.4207V22.4178Z" fill="#1D1D1D"/>
<defs>
<clipPath id="clip0_51_2019">
<rect width="35.2213" height="38" fill="white"/>
</clipPath>
</defs>
</svg>
