<svg width="101" height="101" viewBox="0 0 101 101" fill="none" xmlns="http://www.w3.org/2000/svg">
<g clip-path="url(#clip0_115_8)">
<path d="M14.9682 29.85L6.01094 24.3749L4.23141 27.3933C4.06093 27.6812 3.68078 27.8605 3.26171 27.6057C2.84265 27.3509 2.81949 26.9223 2.98997 26.6343L7.35351 19.2379C7.5666 18.8806 7.95213 18.6853 8.37641 18.9455C8.8007 19.2057 8.81326 19.6449 8.60017 20.0022L6.86325 22.9512L15.8205 28.4262C16.1872 28.6485 16.3843 29.0302 16.0647 29.5688C15.7716 30.0647 15.3243 30.0722 14.9734 29.8607L14.9682 29.85Z" fill="white"/>
<path d="M13.7704 20.9709C11.0292 18.0801 11.0132 14.5237 13.2604 12.3122C15.5075 10.1007 19.0108 10.2335 21.7519 13.1243C24.4826 16.0043 24.4881 19.5713 22.2356 21.7828C19.9885 23.9943 16.4958 23.8508 13.7651 20.9708L13.7704 20.9709ZM20.5754 14.2833C18.4242 12.0181 15.8527 11.8225 14.2733 13.3748C12.694 14.927 12.8063 17.5415 14.9522 19.8066C17.0877 22.061 19.6539 22.2673 21.2332 20.715C22.8126 19.1627 22.7108 16.5376 20.5754 14.2833Z" fill="white"/>
<path d="M26.7935 16.5944C25.3905 14.1847 23.2598 9.84699 22.5399 6.85855L21.9958 7.14913C21.7052 7.30767 21.2847 7.25638 21.0564 6.81554C20.8281 6.37469 21.0256 5.99588 21.3213 5.84273L25.2091 3.76644C27.9084 2.32412 29.9504 2.97643 31.0088 5.02474C32.0723 7.08915 31.4464 9.20008 28.7524 10.6371L26.2381 11.979C26.9273 13.4248 27.6487 14.7797 28.2253 15.7962C28.4434 16.1887 28.3715 16.6649 27.8644 16.9289C27.3468 17.2036 26.991 16.9225 26.7988 16.5891L26.7935 16.5944ZM28.0728 9.3253C29.8213 8.39015 30.2253 7.10238 29.5509 5.79598C28.8816 4.50034 27.6268 4.13765 25.8783 5.0728L23.9767 6.08715C24.2931 7.42306 24.9178 9.05043 25.6112 10.6408L28.0728 9.3253Z" fill="white"/>
<path d="M65.5046 14.2921L70.3933 4.89115L67.3378 3.24594C67.0443 3.08847 66.8471 2.71212 67.0766 2.26927C67.3061 1.82643 67.7221 1.78128 68.0156 1.93875L75.5049 5.97301C75.8665 6.16847 76.0794 6.55565 75.8499 6.99314C75.6205 7.43063 75.1887 7.47566 74.8271 7.2802L71.8397 5.67298L66.9511 15.074C66.7536 15.4581 66.3889 15.6804 65.8439 15.3872C65.3407 15.1157 65.3072 14.6656 65.4994 14.2921L65.5046 14.2921Z" fill="white"/>
<path d="M74.1409 12.5881C76.8301 9.64611 80.3148 9.44138 82.6035 11.6058C84.8922 13.7703 84.9503 17.3376 82.261 20.2796C79.5824 23.2057 76.082 23.4049 73.7985 21.2405C71.5098 19.0761 71.4622 15.5195 74.1409 12.5881ZM81.0645 19.1408C83.1702 16.8372 83.2264 14.2079 81.6169 12.6858C80.0128 11.1637 77.4538 11.4181 75.3427 13.7216C73.2476 16.0146 73.181 18.6331 74.7852 20.1552C76.3893 21.6773 78.964 21.4337 81.0592 19.1408L81.0645 19.1408Z" fill="white"/>
<path d="M79.1335 25.6028C81.4179 24.0503 85.5659 21.6492 88.4558 20.7546L88.1388 20.2167C87.9673 19.9262 87.9968 19.498 88.4143 19.2439C88.8371 18.99 89.2146 19.1695 89.3861 19.46L91.631 23.2951C93.19 25.9576 92.6641 28.0746 90.7086 29.2546C88.7425 30.4452 86.6364 29.9264 85.0775 27.2638L83.6277 24.7788C82.2487 25.5614 80.9537 26.3606 79.9861 27.0069C79.616 27.2505 79.1428 27.1989 78.8518 26.704C78.5556 26.193 78.811 25.8146 79.1282 25.6027L79.1335 25.6028ZM86.3353 26.5072C87.3434 28.2338 88.63 28.5753 89.8773 27.8185C91.114 27.0724 91.4024 25.7731 90.389 24.0465L89.2926 22.1693C87.9953 22.5614 86.4378 23.2838 84.9167 24.076L86.3353 26.5072Z" fill="white"/>
<path d="M83.4761 64.8051L92.967 69.2557L94.4164 66.0582C94.5554 65.754 94.9148 65.5317 95.3606 65.7385C95.8063 65.9452 95.8768 66.3689 95.7378 66.6731L92.1919 74.5094C92.0207 74.8884 91.6507 75.1213 91.2102 74.9146C90.7645 74.7078 90.7046 74.2682 90.8757 73.8892L92.2877 70.7664L82.7968 66.3158C82.4088 66.1362 82.1746 65.7756 82.4314 65.2044C82.6667 64.6813 83.1144 64.6203 83.4867 64.7944L83.4761 64.8051Z" fill="white"/>
<path d="M85.6116 73.5093C88.6392 76.0862 89.029 79.6185 87.0274 82.0621C85.0206 84.5057 81.525 84.7532 78.4974 82.1817C75.4803 79.6156 75.1011 76.0726 77.1079 73.629C79.1148 71.1855 82.5997 70.9486 85.6168 73.5147L85.6116 73.5093ZM79.5487 80.8933C81.9226 82.9138 84.5015 82.8256 85.9084 81.1113C87.3153 79.3971 86.9291 76.8074 84.5551 74.7923C82.1916 72.7826 79.6234 72.8602 78.2165 74.5744C76.8096 76.2887 77.1851 78.889 79.5486 80.8986L79.5487 80.8933Z" fill="white"/>
<path d="M73.1149 79.2696C74.7664 81.5097 77.3463 85.5883 78.3827 88.4773L78.8904 88.1275C79.1654 87.9367 79.5863 87.9398 79.8568 88.3542C80.1274 88.7686 79.9719 89.1638 79.6969 89.3545L76.0586 91.8451C73.5309 93.5779 71.4293 93.1554 70.1595 91.2394C68.8846 89.3074 69.2793 87.1412 71.8018 85.4084L74.1604 83.7921C73.318 82.431 72.4591 81.1607 71.7768 80.2131C71.5164 79.847 71.541 79.3651 72.0116 79.0472C72.4981 78.7134 72.8804 78.9572 73.1044 79.2641L73.1149 79.2696ZM72.6189 86.6355C70.9796 87.7589 70.7173 89.0798 71.5239 90.3068C72.3253 91.5178 73.6127 91.7414 75.2468 90.6234L77.0289 89.4046C76.5754 88.1105 75.7817 86.5623 74.9193 85.0617L72.6136 86.6408L72.6189 86.6355Z" fill="white"/>
<path d="M31.7679 84.4685L27.0627 93.9673L30.1502 95.5484C30.4438 95.7006 30.6515 96.0716 30.4272 96.5199C30.2083 96.9628 29.7921 97.024 29.4933 96.8719L21.924 92.9923C21.5571 92.8022 21.3388 92.4257 21.5579 91.9774C21.7768 91.5345 22.2087 91.4841 22.5756 91.6742L25.5897 93.2227L30.2948 83.724C30.4871 83.3398 30.8466 83.1068 31.397 83.3893C31.9054 83.6501 31.9442 84.1003 31.7626 84.4739L31.7679 84.4685Z" fill="white"/>
<path d="M23.146 86.3426C20.5143 89.3332 17.0291 89.6129 14.7032 87.4911C12.3773 85.3692 12.2509 81.8067 14.8826 78.8107C17.5037 75.8307 20.9994 75.5671 23.3306 77.6837C25.6564 79.8056 25.7724 83.3626 23.1513 86.3426L23.146 86.3426ZM16.1057 79.923C14.0417 82.2697 14.0382 84.8994 15.6742 86.3842C17.3102 87.869 19.8643 87.5718 21.9283 85.225C23.9817 82.8889 23.9956 80.2754 22.3596 78.7852C20.7236 77.295 18.1591 77.5868 16.1057 79.923Z" fill="white"/>
<path d="M17.9159 73.4394C15.6627 75.0403 11.5666 77.5275 8.69205 78.4811L9.01963 79.0137C9.19643 79.2989 9.1775 79.7272 8.75989 79.9919C8.34228 80.2567 7.95946 80.0825 7.78265 79.7973L5.46375 76.0099C3.85194 73.3791 4.33579 71.2564 6.26526 70.0334C8.20533 68.7997 10.3223 69.2758 11.9288 71.9066L13.4314 74.3598C14.7949 73.5504 16.0743 72.7189 17.0262 72.0618C17.3911 71.8127 17.8643 71.8537 18.1659 72.3433C18.4727 72.849 18.2278 73.2328 17.9158 73.4501L17.9159 73.4394ZM10.7025 72.6795C9.65738 70.9741 8.37059 70.6594 7.13888 71.443C5.91777 72.216 5.65564 73.5208 6.70076 75.2209L7.83418 77.077C9.12109 76.658 10.6683 75.9034 12.1739 75.079L10.7025 72.6795Z" fill="white"/>
<path d="M94.8942 49.7004C94.4254 50.4843 93.5213 51.0829 92.5852 51.0117C91.4441 50.9284 91.0731 49.8545 91.1594 48.8483C91.2226 48.1203 91.4639 47.5116 91.2798 46.7765C91.014 45.7194 90.6783 44.1424 91.9138 43.557C92.4893 43.2827 93.215 43.3362 93.7864 43.6296C93.9961 43.7383 94.2213 43.8845 94.3884 44.0571C95.4849 45.2059 95.7611 47.0021 95.3765 48.4989C95.2736 48.9052 95.1073 49.3432 94.8941 49.7058L94.8942 49.7004Z" fill="white"/>
<path d="M96.7285 49.972C96.1382 49.3893 96.197 48.5381 96.8166 47.9964C97.6162 47.3007 99.4885 47.4215 100.14 48.3046C100.442 48.7139 100.436 49.4476 100.196 49.9171C99.9667 50.3707 99.4337 50.5864 98.9545 50.6364C98.6965 50.6613 98.386 50.6697 98.1286 50.6143C97.6873 50.52 97.0523 50.2957 96.7232 49.972L96.7285 49.972Z" fill="white"/>
<path d="M99.279 43.7135C99.5675 43.8334 99.7975 44.0386 99.9271 44.302C100.29 45.0491 100.325 46.0241 99.6009 46.458C99.2521 46.6643 98.7356 46.7783 98.2198 46.796C97.7041 46.8136 97.1839 46.7188 96.8274 46.534C96.5549 46.3928 96.3672 46.1558 96.2746 45.8605C96.1306 45.4096 96.1465 44.6813 96.4964 44.325C96.8834 43.9262 97.5377 43.6686 98.0803 43.5815C98.428 43.5251 98.8961 43.5553 99.2842 43.7189L99.279 43.7135Z" fill="white"/>
<path d="M97.2028 52.7279C96.4145 53.3274 94.8092 52.6675 94.743 51.6495C94.7002 51.0386 95.2335 50.7747 95.765 50.7733C96.5279 50.7681 97.8132 51.2917 97.5006 52.3017C97.4413 52.494 97.3351 52.6325 97.2028 52.7333L97.2028 52.7279Z" fill="white"/>
<path d="M96.1629 43.8668C95.8991 43.9773 95.6094 44.0127 95.3104 43.8927C95.0481 43.7836 94.924 43.4828 94.8943 43.2255C94.7949 42.4321 95.3677 41.815 96.0955 41.5847C96.5966 41.4224 97.3436 41.4332 97.5602 42.0293C97.7717 42.6146 97.2213 43.0444 96.8663 43.3846C96.6649 43.5759 96.4268 43.7616 96.1629 43.8721L96.1629 43.8668Z" fill="white"/>
<path d="M48.3665 94.7774C47.5965 94.3004 47.0087 93.3803 47.0788 92.4275C47.161 91.2659 48.2161 90.888 49.2047 90.9756C49.9198 91.0397 50.5178 91.2851 51.24 91.0976C52.2786 90.8267 53.828 90.4846 54.4028 91.7421C54.6721 92.3278 54.6193 93.0665 54.3309 93.6482C54.2241 93.8616 54.0804 94.0909 53.9108 94.261C52.7819 95.3775 51.0171 95.6591 49.5468 95.268C49.1476 95.1634 48.7174 94.9942 48.3612 94.7773L48.3665 94.7774Z" fill="white"/>
<path d="M48.1001 96.6434C48.6727 96.0424 49.5089 96.1021 50.0409 96.7326C50.7243 97.5463 50.605 99.4521 49.7373 100.115C49.3351 100.423 48.6143 100.418 48.1531 100.173C47.7076 99.9397 47.4958 99.3972 47.4468 98.9094C47.4224 98.6468 47.4142 98.3308 47.4687 98.0688C47.5615 97.6195 47.7819 96.9731 48.1001 96.638L48.1001 96.6434Z" fill="white"/>
<path d="M54.2478 99.2376C54.1299 99.5313 53.9282 99.7655 53.6694 99.8975C52.9353 100.267 51.9775 100.303 51.5514 99.5659C51.3488 99.211 51.2369 98.6853 51.2197 98.1603C51.2025 97.6353 51.2959 97.1058 51.4774 96.7429C51.6162 96.4654 51.8492 96.2743 52.1392 96.1801C52.5823 96.0333 53.2978 96.0493 53.6477 96.4053C54.0394 96.7992 54.2923 97.4652 54.3777 98.0174C54.433 98.3713 54.4032 98.8478 54.2425 99.2429L54.2478 99.2376Z" fill="white"/>
<path d="M45.3921 97.1277C44.8035 96.3254 45.4521 94.6913 46.4523 94.6237C47.0525 94.5799 47.3116 95.1227 47.3129 95.6636C47.3177 96.4402 46.803 97.7486 45.8109 97.4307C45.6219 97.3704 45.4859 97.2623 45.3869 97.1277L45.3921 97.1277Z" fill="white"/>
<path d="M54.0973 96.0674C53.9888 95.7988 53.9541 95.504 54.0721 95.1996C54.1793 94.9326 54.4749 94.8062 54.7277 94.7759C55.5071 94.6745 56.1132 95.2574 56.3393 95.9982C56.4987 96.5081 56.4878 97.2686 55.9022 97.4892C55.3271 97.7046 54.905 97.1445 54.5709 96.7832C54.383 96.5783 54.2006 96.3359 54.0921 96.0674L54.0973 96.0674Z" fill="white"/>
<path d="M46.1665 5.90874C45.3897 6.37435 44.7884 7.28578 44.8446 8.23951C44.9097 9.40219 45.9591 9.7955 46.9489 9.72243C47.6648 9.66876 48.2664 9.43217 48.9858 9.63025C50.0202 9.91634 51.5645 10.2811 52.1577 9.03225C52.4356 8.45051 52.3936 7.71111 52.1138 7.12528C52.0101 6.91029 51.8698 6.67896 51.7027 6.50635C50.5902 5.37348 48.8299 5.066 47.3539 5.43544C46.9533 5.53426 46.5206 5.69711 46.1613 5.90871L46.1665 5.90874Z" fill="white"/>
<path d="M45.9276 4.03898C46.4914 4.64832 47.3283 4.6009 47.8696 3.97825C48.5648 3.17463 48.4735 1.26731 47.6156 0.591548C47.218 0.277998 46.4972 0.27271 46.0324 0.51031C45.5835 0.737315 45.3638 1.27663 45.3076 1.7636C45.2794 2.02582 45.2666 2.34172 45.3172 2.60452C45.4034 3.05504 45.6143 3.70463 45.9276 4.04434L45.9276 4.03898Z" fill="white"/>
<path d="M52.102 1.53926C51.9884 1.24386 51.8114 0.985485 51.5493 0.849668C50.8207 0.469421 49.8633 0.44633 49.4317 1.1769C49.224 1.52886 49.1097 2.04753 49.0848 2.57221C49.0599 3.09689 49.1243 3.63294 49.3006 3.99307C49.4353 4.27256 49.6707 4.46709 49.9594 4.56561C50.4002 4.71881 51.1002 4.69716 51.4605 4.34633C51.858 3.95827 52.1416 3.30695 52.2351 2.76135C52.2956 2.40831 52.2569 1.93672 52.102 1.53926Z" fill="white"/>
<path d="M43.2269 3.5143C42.6265 4.3079 43.2511 5.95135 44.2502 6.03366C44.8497 6.08625 45.1167 5.54728 45.1259 5.00642C45.1421 4.22995 44.6467 2.91416 43.65 3.21748C43.4602 3.275 43.3226 3.38111 43.2216 3.51426L43.2269 3.5143Z" fill="white"/>
<path d="M51.9158 4.69729C51.8034 4.96425 51.7644 5.25853 51.8779 5.56464C51.9811 5.83319 52.2748 5.96388 52.5271 5.99787C53.305 6.11069 53.9196 5.53678 54.1565 4.79942C54.3233 4.29185 54.3237 3.53133 53.7413 3.30212C53.1694 3.07834 52.7392 3.63218 52.3998 3.98852C52.2089 4.19064 52.023 4.43029 51.9105 4.69725L51.9158 4.69729Z" fill="white"/>
<path d="M5.8309 51.8015C6.28812 52.5921 7.18338 53.2039 8.12037 53.1465C9.26263 53.0799 9.64931 52.0116 9.57777 51.0042C9.52524 50.2754 9.29296 49.6631 9.48775 48.9308C9.76908 47.8778 10.1279 46.3058 8.90108 45.7023C8.32964 45.4197 7.60322 45.4625 7.02761 45.7475C6.81637 45.8531 6.58907 45.996 6.41945 46.1662C5.30619 47.2988 5.00366 49.0907 5.36622 50.593C5.4632 51.0007 5.62308 51.4411 5.83086 51.8068L5.8309 51.8015Z" fill="white"/>
<path d="M3.99273 52.0445C4.59151 51.4704 4.54514 50.6185 3.93357 50.0678C3.14425 49.3604 1.27042 49.4537 0.606312 50.3272C0.298168 50.732 0.292786 51.4657 0.52609 51.9387C0.748989 52.3956 1.27878 52.619 1.75717 52.6761C2.01478 52.7048 2.32512 52.7178 2.58332 52.6661C3.02594 52.5783 3.66417 52.3634 3.99799 52.0445L3.99273 52.0445Z" fill="white"/>
<path d="M1.53969 45.7606C1.24945 45.8762 0.995572 46.0565 0.862074 46.3233C0.488319 47.065 0.465385 48.0396 1.18301 48.4787C1.52873 48.6901 2.03825 48.8063 2.55371 48.8315C3.06916 48.8567 3.59581 48.7909 3.94966 48.6114C4.22427 48.4742 4.41544 48.2346 4.51231 47.9407C4.66293 47.4919 4.64185 46.7795 4.29727 46.4128C3.91614 46.0083 3.27633 45.7197 2.74034 45.6248C2.39352 45.5633 1.93021 45.6027 1.53969 45.7606Z" fill="white"/>
<path d="M3.4781 54.7944C4.25761 55.4053 5.87233 54.7691 5.95346 53.7521C6.00529 53.1419 5.47585 52.8702 4.9445 52.861C4.18168 52.8447 2.88888 53.3493 3.18661 54.3638C3.24307 54.557 3.34728 54.697 3.47806 54.7997L3.4781 54.7944Z" fill="white"/>
<path d="M4.6425 45.9499C4.90475 46.0643 5.19385 46.1039 5.49461 45.9883C5.75846 45.8831 5.88693 45.5841 5.92039 45.3273C6.03143 44.5354 5.46776 43.91 4.74342 43.6691C4.24481 43.4994 3.49766 43.4993 3.27232 44.0921C3.05232 44.6743 3.59632 45.1121 3.94632 45.4574C4.14484 45.6517 4.38022 45.8408 4.64246 45.9552L4.6425 45.9499Z" fill="white"/>
</g>
<defs>
<clipPath id="clip0_115_8">
<rect width="100" height="100" fill="white" transform="translate(0.733398) rotate(0.420281)"/>
</clipPath>
</defs>
</svg>
