<svg width="99" height="46" viewBox="0 0 99 46" fill="none" xmlns="http://www.w3.org/2000/svg">
<g clip-path="url(#clip0_39_1068)">
<path d="M47.8114 15.6765C42.2899 13.4793 36.7127 13.7134 35.2993 16.2869C33.8713 18.8797 35.951 25.0193 39.8756 30.1174C43.8002 35.2111 49.3466 35.0452 52.4082 29.4819C55.4199 23.9333 53.3181 17.8678 47.8114 15.678" fill="#FF9700"/>
<path d="M19.7331 17.4531C24.6323 20.8311 30.1185 21.8519 32.0632 19.6607C34.0255 17.4531 33.3474 11.0038 30.6424 5.15606C27.9375 -0.688763 22.4938 -1.76883 18.2874 2.96925C14.1324 7.70289 14.8486 14.0855 19.7346 17.4531" fill="#2570B8"/>
<path d="M37.2909 35.2307C36.5057 29.2925 33.5909 24.4877 30.676 24.4922C27.7363 24.4952 23.4345 29.3147 20.9321 35.2558C18.4326 41.1955 21.2755 46.0062 27.5792 46.0002C33.8462 45.9573 38.0732 41.1525 37.2894 35.2307" fill="#DD2036"/>
<path d="M14.9278 19.7949C13.9283 19.7949 13.2561 20.4172 13.2561 21.3417V22.2736H15.6294C15.6294 22.2736 15.7086 30.1778 15.6191 31.006C15.5295 31.8342 15.3211 33.1824 13.8534 33.8892C12.5868 34.4996 12.5619 35.0759 12.4812 35.5885C12.377 36.2538 12.5002 36.3382 12.9802 36.2197C14.8662 35.753 16.8725 34.99 17.8881 33.1069C18.4385 32.0846 18.6601 30.9793 18.6601 29.2992V22.2721C19.6655 22.2603 20.3905 21.6128 20.3905 20.7254V19.7949H14.9293H14.9278Z" fill="white"/>
<path d="M12.2904 30.453C12.2904 30.453 10.3868 33.2087 6.68972 33.2087C2.99262 33.2087 0 30.2603 0 26.3505C0 22.4406 2.8752 19.4004 6.68972 19.4004C10.5042 19.4004 12.242 22.1561 12.242 22.1561C12.242 22.1561 11.2263 23.254 10.2503 23.254C9.77481 23.254 9.41816 23.0317 9.00574 22.7754C8.45535 22.4317 7.83012 22.042 6.68972 22.042C4.52048 22.042 2.75632 23.974 2.75632 26.349C2.75632 28.724 4.52048 30.5656 6.68972 30.5656C7.97689 30.5656 8.58157 30.1937 9.11581 29.8648C9.49594 29.6307 9.85406 29.4099 10.3722 29.4099C11.4715 29.4099 12.2904 30.45 12.2904 30.45V30.453Z" fill="white"/>
<path d="M71.7744 30.9108V31.5746H84.6915C84.8354 31.5746 85.3916 31.5257 85.3916 30.8605V30.2012H72.476C72.3307 30.2012 71.7744 30.2501 71.7744 30.9108Z" fill="white"/>
<path d="M94.8156 24.5447V19.7652H93.9247C93.1439 19.7652 92.7124 20.2541 92.7109 21.1371V21.5371H89.2883V19.7637H88.3959C87.6122 19.7637 87.1851 20.2526 87.1851 21.1356L87.1807 26.1596H93.0558C94.023 26.1596 94.8156 25.4351 94.8156 24.5432M92.7109 24.7907H89.2839V22.9091H92.7109V24.7907Z" fill="white"/>
<path d="M98.8649 25.102V19.4023H97.9755C97.1947 19.4023 96.7632 19.8898 96.7632 20.7743V26.4754H97.6555C98.4378 26.4754 98.8664 25.985 98.8664 25.102" fill="white"/>
<path d="M57.2017 28.2336V28.8959H62.9594V33.4754H63.8518C64.6326 33.474 65.0626 32.9865 65.0626 32.1005V28.8974H70.1217C70.2656 28.8959 70.8247 28.847 70.8247 28.1832V27.5225H57.9047C57.7579 27.5225 57.2031 27.5714 57.2031 28.2321" fill="white"/>
<path d="M69.8062 25.2802V24.6165H67.8791V21.3007H68.8639C69.0077 21.2978 69.564 21.2503 69.564 20.5881V19.9229H59.1581C59.0142 19.9243 58.4536 19.9732 58.4536 20.637V21.3007H60.1356V24.6165H58.9159C58.7706 24.6165 58.2144 24.6654 58.2144 25.3276V25.9929H69.1031C69.2484 25.9884 69.8062 25.9425 69.8062 25.2788M65.7759 24.6787H62.2402V21.3629H65.7759V24.6787Z" fill="white"/>
<path d="M82.9903 27.3808C83.1341 27.3793 83.6904 27.3304 83.6904 26.6681V26.0088H75.4919V21.4959H82.9903C83.1341 21.4944 83.6904 21.4456 83.6904 20.7818V20.127H74.7771C74.0139 20.127 73.3872 20.69 73.3872 21.3804V27.3793H82.9888L82.9903 27.3808Z" fill="white"/>
<path d="M91.0451 31.8518V30.8117H97.4765C98.2397 30.8103 98.8679 30.2487 98.8679 29.5583V27.1611H89.6464C89.4996 27.1626 88.9434 27.21 88.9434 27.8723V28.5301H96.7632V29.4398H90.1542C89.369 29.4398 88.939 29.9272 88.939 30.8117L88.9434 33.2208H98.2969C98.4423 33.2193 98.9985 33.1719 98.9985 32.5067V31.8503H91.0436L91.0451 31.8518Z" fill="white"/>
</g>
<defs>
<clipPath id="clip0_39_1068">
<rect width="99" height="46" fill="white"/>
</clipPath>
</defs>
</svg>
